%
M48
M72
T01C0.0160
T02C0.0200
T03C0.0374
T04C0.0400
%
T01
X3750Y3690
X4040Y4130
X3530Y5440
X2420Y5900
X2320Y5330
X1780Y4450
X940Y5590
X3870Y7370
X3920Y6560
X4650Y6460
X5070Y6090
X6880Y6130
X8230Y4760
X7940Y4450
X6790Y4280
X6870Y3730
X7070Y2890
X5850Y3800
X7180Y1430
X4480Y1410
X9320Y5120
X10050Y6440
X9430Y6660
X7690Y7870
X2710Y8270
X1640Y8100
T02
X580Y6020
X560Y5760
X550Y5510
X560Y5260
X580Y5010
X5050Y8800
X5300Y8800
X5550Y8800
X5800Y8800
X6050Y8800
X10520Y6020
X10540Y5760
X10550Y5510
X10540Y5260
X10520Y5010
X6050Y580
X5800Y560
X5550Y550
X5300Y560
X5040Y580
T03
X5500Y1360
T04
X7694Y4003
X9483Y3024
X8969Y2411
M30
