G75*
%MOIN*%
%OFA0B0*%
%FSLAX25Y25*%
%IPPOS*%
%LPD*%
%AMOC8*
5,1,8,0,0,1.08239X$1,22.5*
%
%ADD10R,0.04488X0.00787*%
%ADD11C,0.06102*%
%ADD12C,0.03200*%
%ADD13C,0.00800*%
D10*
X0012803Y0062350D03*
X0012803Y0063925D03*
X0012803Y0065500D03*
X0012803Y0067075D03*
X0012803Y0068650D03*
X0023197Y0068650D03*
X0023197Y0067075D03*
X0023197Y0065500D03*
X0023197Y0063925D03*
X0023197Y0062350D03*
X0087803Y0048650D03*
X0087803Y0047075D03*
X0087803Y0045500D03*
X0087803Y0043925D03*
X0087803Y0042350D03*
X0098197Y0042350D03*
X0098197Y0043925D03*
X0098197Y0045500D03*
X0098197Y0047075D03*
X0098197Y0048650D03*
D11*
X0055000Y0013600D03*
D12*
X0044800Y0014100D03*
X0070700Y0028900D03*
X0068700Y0037300D03*
X0067900Y0042800D03*
X0058500Y0038000D03*
X0040400Y0041300D03*
X0037500Y0036900D03*
X0017800Y0044500D03*
X0023200Y0053300D03*
X0024200Y0059000D03*
X0035300Y0054400D03*
X0046500Y0064600D03*
X0050700Y0060900D03*
X0039200Y0065600D03*
X0038700Y0073700D03*
X0027100Y0082700D03*
X0016400Y0081000D03*
X0009400Y0055900D03*
X0068800Y0061300D03*
X0082300Y0047600D03*
X0079400Y0044500D03*
X0093200Y0051200D03*
X0100500Y0064400D03*
X0094300Y0066600D03*
X0076900Y0078700D03*
X0071800Y0014300D03*
D13*
X0088578Y0020672D02*
X0021996Y0020672D01*
X0088578Y0020672D01*
X0088878Y0020547D02*
X0087650Y0021056D01*
X0086637Y0022069D01*
X0086089Y0023392D01*
X0086089Y0024824D01*
X0086637Y0026147D01*
X0087650Y0027160D01*
X0088973Y0027708D01*
X0090405Y0027708D01*
X0091729Y0027160D01*
X0092741Y0026147D01*
X0093161Y0025134D01*
X0094254Y0026636D01*
X0094116Y0026636D01*
X0092792Y0027184D01*
X0091780Y0028197D01*
X0091232Y0029520D01*
X0091232Y0030952D01*
X0091780Y0032276D01*
X0092792Y0033288D01*
X0094116Y0033836D01*
X0095548Y0033836D01*
X0096871Y0033288D01*
X0097884Y0032276D01*
X0097886Y0032269D01*
X0100380Y0037238D01*
X0101461Y0040714D01*
X0101104Y0040357D01*
X0095290Y0040357D01*
X0095088Y0040559D01*
X0094028Y0039500D01*
X0092328Y0037800D01*
X0083272Y0037800D01*
X0082100Y0038972D01*
X0080540Y0040532D01*
X0080540Y0039312D01*
X0079991Y0037989D01*
X0078979Y0036976D01*
X0077656Y0036428D01*
X0076223Y0036428D01*
X0074900Y0036976D01*
X0073888Y0037989D01*
X0073340Y0039312D01*
X0073340Y0040744D01*
X0073888Y0042067D01*
X0074900Y0043080D01*
X0076223Y0043628D01*
X0076298Y0043628D01*
X0076200Y0043863D01*
X0076200Y0045137D01*
X0076687Y0046313D01*
X0077587Y0047213D01*
X0078763Y0047700D01*
X0079100Y0047700D01*
X0079100Y0048237D01*
X0079587Y0049413D01*
X0080487Y0050313D01*
X0081663Y0050800D01*
X0082937Y0050800D01*
X0084113Y0050313D01*
X0084339Y0050086D01*
X0084896Y0050643D01*
X0090000Y0050643D01*
X0090000Y0051837D01*
X0090487Y0053013D01*
X0091387Y0053913D01*
X0092563Y0054400D01*
X0093837Y0054400D01*
X0095013Y0053913D01*
X0095913Y0053013D01*
X0096400Y0051837D01*
X0096400Y0050828D01*
X0096579Y0050650D01*
X0099025Y0050650D01*
X0099032Y0050643D01*
X0101104Y0050643D01*
X0102041Y0049706D01*
X0102041Y0042579D01*
X0102715Y0044747D01*
X0103352Y0048271D01*
X0102996Y0048627D01*
X0102600Y0049583D01*
X0102600Y0050617D01*
X0102996Y0051573D01*
X0103007Y0051584D01*
X0102800Y0052083D01*
X0102800Y0053117D01*
X0103154Y0053971D01*
X0102900Y0054583D01*
X0102900Y0055617D01*
X0103154Y0056229D01*
X0102800Y0057083D01*
X0102800Y0058117D01*
X0103036Y0058687D01*
X0102996Y0058727D01*
X0102600Y0059683D01*
X0102600Y0060717D01*
X0102996Y0061673D01*
X0103428Y0062105D01*
X0102936Y0065062D01*
X0101043Y0071829D01*
X0098198Y0078255D01*
X0094461Y0084205D01*
X0092726Y0086400D01*
X0062577Y0086400D01*
X0061973Y0085796D01*
X0061017Y0085400D01*
X0059983Y0085400D01*
X0059250Y0085704D01*
X0058517Y0085400D01*
X0057483Y0085400D01*
X0056750Y0085704D01*
X0056017Y0085400D01*
X0054983Y0085400D01*
X0054250Y0085704D01*
X0053517Y0085400D01*
X0052483Y0085400D01*
X0051750Y0085704D01*
X0051017Y0085400D01*
X0049983Y0085400D01*
X0049027Y0085796D01*
X0048423Y0086400D01*
X0018274Y0086400D01*
X0016539Y0084205D01*
X0016536Y0084200D01*
X0017037Y0084200D01*
X0018213Y0083713D01*
X0019113Y0082813D01*
X0019600Y0081637D01*
X0019600Y0080363D01*
X0019113Y0079187D01*
X0018400Y0078475D01*
X0018400Y0069628D01*
X0018672Y0069900D01*
X0019421Y0070650D01*
X0024025Y0070650D01*
X0024032Y0070643D01*
X0025100Y0070643D01*
X0025100Y0080175D01*
X0024387Y0080887D01*
X0023900Y0082063D01*
X0023900Y0083337D01*
X0024387Y0084513D01*
X0025287Y0085413D01*
X0026463Y0085900D01*
X0027737Y0085900D01*
X0028913Y0085413D01*
X0029813Y0084513D01*
X0030300Y0083337D01*
X0030300Y0082063D01*
X0029813Y0080887D01*
X0029100Y0080175D01*
X0029100Y0067272D01*
X0028728Y0066900D01*
X0029300Y0066328D01*
X0032200Y0063428D01*
X0032200Y0055692D01*
X0032325Y0055580D01*
X0032587Y0056213D01*
X0033487Y0057113D01*
X0034663Y0057600D01*
X0035937Y0057600D01*
X0037113Y0057113D01*
X0037825Y0056400D01*
X0043372Y0056400D01*
X0047500Y0060528D01*
X0047500Y0061537D01*
X0047507Y0061553D01*
X0047137Y0061400D01*
X0045863Y0061400D01*
X0044687Y0061887D01*
X0043787Y0062787D01*
X0043300Y0063963D01*
X0043300Y0065237D01*
X0043603Y0065968D01*
X0039072Y0070500D01*
X0038063Y0070500D01*
X0036887Y0070987D01*
X0035987Y0071887D01*
X0035500Y0073063D01*
X0035500Y0074337D01*
X0035987Y0075513D01*
X0036887Y0076413D01*
X0038063Y0076900D01*
X0039337Y0076900D01*
X0040513Y0076413D01*
X0041413Y0075513D01*
X0041900Y0074337D01*
X0041900Y0073328D01*
X0047635Y0067594D01*
X0048313Y0067313D01*
X0049213Y0066413D01*
X0049700Y0065237D01*
X0049700Y0063963D01*
X0049693Y0063947D01*
X0050063Y0064100D01*
X0051337Y0064100D01*
X0052513Y0063613D01*
X0053413Y0062713D01*
X0053900Y0061537D01*
X0053900Y0060263D01*
X0053413Y0059087D01*
X0052513Y0058187D01*
X0051337Y0057700D01*
X0050328Y0057700D01*
X0045028Y0052400D01*
X0037825Y0052400D01*
X0037113Y0051687D01*
X0036801Y0051558D01*
X0036866Y0051500D01*
X0041728Y0051500D01*
X0042900Y0050328D01*
X0048428Y0044800D01*
X0065375Y0044800D01*
X0066087Y0045513D01*
X0067263Y0046000D01*
X0068537Y0046000D01*
X0069713Y0045513D01*
X0070613Y0044613D01*
X0071100Y0043437D01*
X0071100Y0042163D01*
X0070613Y0040987D01*
X0069894Y0040269D01*
X0070513Y0040013D01*
X0071413Y0039113D01*
X0071900Y0037937D01*
X0071900Y0036663D01*
X0071413Y0035487D01*
X0070513Y0034587D01*
X0069337Y0034100D01*
X0068063Y0034100D01*
X0066887Y0034587D01*
X0065987Y0035487D01*
X0065500Y0036663D01*
X0065500Y0037586D01*
X0063700Y0039300D01*
X0042925Y0039300D01*
X0042213Y0038587D01*
X0041037Y0038100D01*
X0039763Y0038100D01*
X0038587Y0038587D01*
X0037687Y0039487D01*
X0037200Y0040663D01*
X0037200Y0041272D01*
X0034372Y0044100D01*
X0024967Y0044100D01*
X0024208Y0044049D01*
X0024149Y0044100D01*
X0024072Y0044100D01*
X0023533Y0044638D01*
X0015449Y0051700D01*
X0015372Y0051700D01*
X0014833Y0052238D01*
X0014260Y0052739D01*
X0014255Y0052816D01*
X0014200Y0052872D01*
X0014200Y0053633D01*
X0014149Y0054392D01*
X0014200Y0054451D01*
X0014200Y0060557D01*
X0012803Y0060557D01*
X0012803Y0061925D01*
X0012803Y0061925D01*
X0012803Y0061925D01*
X0012803Y0060557D01*
X0010375Y0060557D01*
X0010019Y0060652D01*
X0009699Y0060836D01*
X0009439Y0061097D01*
X0009254Y0061416D01*
X0009159Y0061772D01*
X0009159Y0061925D01*
X0008846Y0061925D01*
X0007728Y0063044D01*
X0007572Y0062105D01*
X0008004Y0061673D01*
X0008400Y0060717D01*
X0008400Y0059683D01*
X0008004Y0058727D01*
X0007964Y0058687D01*
X0008200Y0058117D01*
X0008200Y0057083D01*
X0007846Y0056229D01*
X0008100Y0055617D01*
X0008100Y0054583D01*
X0007846Y0053971D01*
X0008200Y0053117D01*
X0008200Y0052083D01*
X0007993Y0051584D01*
X0008004Y0051573D01*
X0008400Y0050617D01*
X0008400Y0049583D01*
X0008004Y0048627D01*
X0007648Y0048271D01*
X0008285Y0044747D01*
X0010620Y0037238D01*
X0014148Y0030209D01*
X0018773Y0023849D01*
X0024373Y0018328D01*
X0030797Y0013792D01*
X0037874Y0010363D01*
X0045416Y0008133D01*
X0048537Y0007614D01*
X0048927Y0008004D01*
X0049883Y0008400D01*
X0050917Y0008400D01*
X0051873Y0008004D01*
X0051913Y0007964D01*
X0052483Y0008200D01*
X0053517Y0008200D01*
X0054371Y0007846D01*
X0054983Y0008100D01*
X0056017Y0008100D01*
X0056629Y0007846D01*
X0057483Y0008200D01*
X0058517Y0008200D01*
X0059016Y0007993D01*
X0059027Y0008004D01*
X0059983Y0008400D01*
X0061017Y0008400D01*
X0061973Y0008004D01*
X0062377Y0007600D01*
X0065584Y0008133D01*
X0073126Y0010363D01*
X0080203Y0013792D01*
X0086627Y0018328D01*
X0088878Y0020547D01*
X0086627Y0018328D01*
X0080203Y0013792D01*
X0073126Y0010363D01*
X0065584Y0008133D01*
X0062377Y0007600D01*
X0061973Y0008004D01*
X0061017Y0008400D01*
X0059983Y0008400D01*
X0059027Y0008004D01*
X0059016Y0007993D01*
X0058517Y0008200D01*
X0057483Y0008200D01*
X0056629Y0007846D01*
X0056017Y0008100D01*
X0054983Y0008100D01*
X0054371Y0007846D01*
X0053517Y0008200D01*
X0052483Y0008200D01*
X0051913Y0007964D01*
X0051873Y0008004D01*
X0050917Y0008400D01*
X0049883Y0008400D01*
X0048927Y0008004D01*
X0048537Y0007614D01*
X0045416Y0008133D01*
X0037874Y0010363D01*
X0030797Y0013792D01*
X0024373Y0018328D01*
X0018773Y0023849D01*
X0014148Y0030209D01*
X0010620Y0037238D01*
X0008285Y0044747D01*
X0007648Y0048271D01*
X0008004Y0048627D01*
X0008400Y0049583D01*
X0008400Y0050617D01*
X0008004Y0051573D01*
X0007993Y0051584D01*
X0008200Y0052083D01*
X0008200Y0053117D01*
X0007846Y0053971D01*
X0008100Y0054583D01*
X0008100Y0055617D01*
X0007846Y0056229D01*
X0008200Y0057083D01*
X0008200Y0058117D01*
X0007964Y0058687D01*
X0008004Y0058727D01*
X0008400Y0059683D01*
X0008400Y0060717D01*
X0008004Y0061673D01*
X0007572Y0062105D01*
X0007728Y0063044D01*
X0008846Y0061925D01*
X0009159Y0061925D01*
X0009159Y0061772D01*
X0009254Y0061416D01*
X0009439Y0061097D01*
X0009699Y0060836D01*
X0010019Y0060652D01*
X0010375Y0060557D01*
X0012803Y0060557D01*
X0012803Y0061925D01*
X0012803Y0060557D01*
X0014200Y0060557D01*
X0014200Y0054451D01*
X0014149Y0054392D01*
X0014200Y0053633D01*
X0014200Y0052872D01*
X0014255Y0052816D01*
X0014260Y0052739D01*
X0014833Y0052238D01*
X0015372Y0051700D01*
X0015449Y0051700D01*
X0023533Y0044638D01*
X0024072Y0044100D01*
X0024149Y0044100D01*
X0024208Y0044049D01*
X0024967Y0044100D01*
X0034372Y0044100D01*
X0037200Y0041272D01*
X0037200Y0040663D01*
X0037687Y0039487D01*
X0038587Y0038587D01*
X0039763Y0038100D01*
X0041037Y0038100D01*
X0042213Y0038587D01*
X0042925Y0039300D01*
X0063700Y0039300D01*
X0065500Y0037586D01*
X0065500Y0036663D01*
X0065987Y0035487D01*
X0066887Y0034587D01*
X0068063Y0034100D01*
X0069337Y0034100D01*
X0070513Y0034587D01*
X0071413Y0035487D01*
X0071900Y0036663D01*
X0071900Y0037937D01*
X0071413Y0039113D01*
X0070513Y0040013D01*
X0069894Y0040269D01*
X0070613Y0040987D01*
X0071100Y0042163D01*
X0071100Y0043437D01*
X0070613Y0044613D01*
X0069713Y0045513D01*
X0068537Y0046000D01*
X0067263Y0046000D01*
X0066087Y0045513D01*
X0065375Y0044800D01*
X0048428Y0044800D01*
X0042900Y0050328D01*
X0041728Y0051500D01*
X0036866Y0051500D01*
X0036801Y0051558D01*
X0037113Y0051687D01*
X0037825Y0052400D01*
X0045028Y0052400D01*
X0050328Y0057700D01*
X0051337Y0057700D01*
X0052513Y0058187D01*
X0053413Y0059087D01*
X0053900Y0060263D01*
X0053900Y0061537D01*
X0053413Y0062713D01*
X0052513Y0063613D01*
X0051337Y0064100D01*
X0050063Y0064100D01*
X0049693Y0063947D01*
X0049700Y0063963D01*
X0049700Y0065237D01*
X0049213Y0066413D01*
X0048313Y0067313D01*
X0047635Y0067594D01*
X0041900Y0073328D01*
X0041900Y0074337D01*
X0041413Y0075513D01*
X0040513Y0076413D01*
X0039337Y0076900D01*
X0038063Y0076900D01*
X0036887Y0076413D01*
X0035987Y0075513D01*
X0035500Y0074337D01*
X0035500Y0073063D01*
X0035987Y0071887D01*
X0036887Y0070987D01*
X0038063Y0070500D01*
X0039072Y0070500D01*
X0043603Y0065968D01*
X0043300Y0065237D01*
X0043300Y0063963D01*
X0043787Y0062787D01*
X0044687Y0061887D01*
X0045863Y0061400D01*
X0047137Y0061400D01*
X0047507Y0061553D01*
X0047500Y0061537D01*
X0047500Y0060528D01*
X0043372Y0056400D01*
X0037825Y0056400D01*
X0037113Y0057113D01*
X0035937Y0057600D01*
X0034663Y0057600D01*
X0033487Y0057113D01*
X0032587Y0056213D01*
X0032325Y0055580D01*
X0032200Y0055692D01*
X0032200Y0063428D01*
X0029300Y0066328D01*
X0028728Y0066900D01*
X0029100Y0067272D01*
X0029100Y0080175D01*
X0029813Y0080887D01*
X0030300Y0082063D01*
X0030300Y0083337D01*
X0029813Y0084513D01*
X0028913Y0085413D01*
X0027737Y0085900D01*
X0026463Y0085900D01*
X0025287Y0085413D01*
X0024387Y0084513D01*
X0023900Y0083337D01*
X0023900Y0082063D01*
X0024387Y0080887D01*
X0025100Y0080175D01*
X0025100Y0070643D01*
X0024032Y0070643D01*
X0024025Y0070650D01*
X0019421Y0070650D01*
X0018672Y0069900D01*
X0018400Y0069628D01*
X0018400Y0078475D01*
X0019113Y0079187D01*
X0019600Y0080363D01*
X0019600Y0081637D01*
X0019113Y0082813D01*
X0018213Y0083713D01*
X0017037Y0084200D01*
X0016536Y0084200D01*
X0016539Y0084205D01*
X0018274Y0086400D01*
X0048423Y0086400D01*
X0049027Y0085796D01*
X0049983Y0085400D01*
X0051017Y0085400D01*
X0051750Y0085704D01*
X0052483Y0085400D01*
X0053517Y0085400D01*
X0054250Y0085704D01*
X0054983Y0085400D01*
X0056017Y0085400D01*
X0056750Y0085704D01*
X0057483Y0085400D01*
X0058517Y0085400D01*
X0059250Y0085704D01*
X0059983Y0085400D01*
X0061017Y0085400D01*
X0061973Y0085796D01*
X0062577Y0086400D01*
X0092726Y0086400D01*
X0094461Y0084205D01*
X0098198Y0078255D01*
X0101043Y0071829D01*
X0102936Y0065062D01*
X0103428Y0062105D01*
X0102996Y0061673D01*
X0102600Y0060717D01*
X0102600Y0059683D01*
X0102996Y0058727D01*
X0103036Y0058687D01*
X0102800Y0058117D01*
X0102800Y0057083D01*
X0103154Y0056229D01*
X0102900Y0055617D01*
X0102900Y0054583D01*
X0103154Y0053971D01*
X0102800Y0053117D01*
X0102800Y0052083D01*
X0103007Y0051584D01*
X0102996Y0051573D01*
X0102600Y0050617D01*
X0102600Y0049583D01*
X0102996Y0048627D01*
X0103352Y0048271D01*
X0102715Y0044747D01*
X0102041Y0042579D01*
X0102041Y0049706D01*
X0101104Y0050643D01*
X0099032Y0050643D01*
X0099025Y0050650D01*
X0096579Y0050650D01*
X0096400Y0050828D01*
X0096400Y0051837D01*
X0095913Y0053013D01*
X0095013Y0053913D01*
X0093837Y0054400D01*
X0092563Y0054400D01*
X0091387Y0053913D01*
X0090487Y0053013D01*
X0090000Y0051837D01*
X0090000Y0050643D01*
X0084896Y0050643D01*
X0084339Y0050086D01*
X0084113Y0050313D01*
X0082937Y0050800D01*
X0081663Y0050800D01*
X0080487Y0050313D01*
X0079587Y0049413D01*
X0079100Y0048237D01*
X0079100Y0047700D01*
X0078763Y0047700D01*
X0077587Y0047213D01*
X0076687Y0046313D01*
X0076200Y0045137D01*
X0076200Y0043863D01*
X0076298Y0043628D01*
X0076223Y0043628D01*
X0074900Y0043080D01*
X0073888Y0042067D01*
X0073340Y0040744D01*
X0073340Y0039312D01*
X0073888Y0037989D01*
X0074900Y0036976D01*
X0076223Y0036428D01*
X0077656Y0036428D01*
X0078979Y0036976D01*
X0079991Y0037989D01*
X0080540Y0039312D01*
X0080540Y0040532D01*
X0082100Y0038972D01*
X0083272Y0037800D01*
X0092328Y0037800D01*
X0094028Y0039500D01*
X0095088Y0040559D01*
X0095290Y0040357D01*
X0101104Y0040357D01*
X0101461Y0040714D01*
X0100380Y0037238D01*
X0097886Y0032269D01*
X0097884Y0032276D01*
X0096871Y0033288D01*
X0095548Y0033836D01*
X0094116Y0033836D01*
X0092792Y0033288D01*
X0091780Y0032276D01*
X0091232Y0030952D01*
X0091232Y0029520D01*
X0091780Y0028197D01*
X0092792Y0027184D01*
X0094116Y0026636D01*
X0094254Y0026636D01*
X0093161Y0025134D01*
X0092741Y0026147D01*
X0091729Y0027160D01*
X0090405Y0027708D01*
X0088973Y0027708D01*
X0087650Y0027160D01*
X0086637Y0026147D01*
X0086089Y0024824D01*
X0086089Y0023392D01*
X0086637Y0022069D01*
X0087650Y0021056D01*
X0088878Y0020547D01*
X0088194Y0019873D02*
X0022806Y0019873D01*
X0088194Y0019873D01*
X0087385Y0019075D02*
X0023615Y0019075D01*
X0087385Y0019075D01*
X0086554Y0018276D02*
X0024446Y0018276D01*
X0086554Y0018276D01*
X0085423Y0017478D02*
X0057194Y0017478D01*
X0085423Y0017478D01*
X0084292Y0016679D02*
X0058216Y0016679D01*
X0084292Y0016679D01*
X0083161Y0015881D02*
X0058834Y0015881D01*
X0083161Y0015881D01*
X0082030Y0015082D02*
X0059199Y0015082D01*
X0082030Y0015082D01*
X0080899Y0014284D02*
X0059398Y0014284D01*
X0080899Y0014284D01*
X0079569Y0013485D02*
X0055400Y0013485D01*
X0079569Y0013485D01*
X0077921Y0012687D02*
X0059362Y0012687D01*
X0077921Y0012687D01*
X0076273Y0011888D02*
X0059123Y0011888D01*
X0076273Y0011888D01*
X0074625Y0011090D02*
X0058678Y0011090D01*
X0074625Y0011090D01*
X0072881Y0010291D02*
X0057986Y0010291D01*
X0072881Y0010291D01*
X0070181Y0009493D02*
X0056743Y0009493D01*
X0070181Y0009493D01*
X0067480Y0008694D02*
X0043520Y0008694D01*
X0067480Y0008694D01*
X0064154Y0007896D02*
X0062081Y0007896D01*
X0064154Y0007896D01*
X0058807Y0011267D02*
X0059125Y0011891D01*
X0059342Y0012558D01*
X0059443Y0013200D01*
X0055400Y0013200D01*
X0055400Y0014000D01*
X0054600Y0014000D01*
X0054600Y0018043D01*
X0053958Y0017942D01*
X0053291Y0017725D01*
X0052667Y0017407D01*
X0052100Y0016995D01*
X0051605Y0016500D01*
X0051193Y0015933D01*
X0050875Y0015309D01*
X0050658Y0014642D01*
X0050557Y0014000D01*
X0054600Y0014000D01*
X0054600Y0018043D01*
X0053958Y0017942D01*
X0053291Y0017725D01*
X0052667Y0017407D01*
X0052100Y0016995D01*
X0051605Y0016500D01*
X0051193Y0015933D01*
X0050875Y0015309D01*
X0050658Y0014642D01*
X0050557Y0014000D01*
X0054600Y0014000D01*
X0055400Y0014000D01*
X0055400Y0018043D01*
X0056042Y0017942D01*
X0056709Y0017725D01*
X0057333Y0017407D01*
X0057900Y0016995D01*
X0058395Y0016500D01*
X0058807Y0015933D01*
X0059125Y0015309D01*
X0059342Y0014642D01*
X0059443Y0014000D01*
X0055400Y0014000D01*
X0055400Y0018043D01*
X0056042Y0017942D01*
X0056709Y0017725D01*
X0057333Y0017407D01*
X0057900Y0016995D01*
X0058395Y0016500D01*
X0058807Y0015933D01*
X0059125Y0015309D01*
X0059342Y0014642D01*
X0059443Y0014000D01*
X0055400Y0014000D01*
X0055400Y0013200D01*
X0059443Y0013200D01*
X0059342Y0012558D01*
X0059125Y0011891D01*
X0058807Y0011267D01*
X0058395Y0010700D01*
X0057900Y0010205D01*
X0057333Y0009793D01*
X0056709Y0009475D01*
X0056042Y0009258D01*
X0055400Y0009157D01*
X0055400Y0013200D01*
X0054600Y0013200D01*
X0050557Y0013200D01*
X0050658Y0012558D01*
X0050875Y0011891D01*
X0051193Y0011267D01*
X0051605Y0010700D01*
X0052100Y0010205D01*
X0052667Y0009793D01*
X0053291Y0009475D01*
X0053958Y0009258D01*
X0054600Y0009157D01*
X0054600Y0013200D01*
X0054600Y0014000D01*
X0054600Y0013200D01*
X0050557Y0013200D01*
X0050658Y0012558D01*
X0050875Y0011891D01*
X0051193Y0011267D01*
X0051605Y0010700D01*
X0052100Y0010205D01*
X0052667Y0009793D01*
X0053291Y0009475D01*
X0053958Y0009258D01*
X0054600Y0009157D01*
X0054600Y0013200D01*
X0055400Y0013200D01*
X0055400Y0009157D01*
X0056042Y0009258D01*
X0056709Y0009475D01*
X0057333Y0009793D01*
X0057900Y0010205D01*
X0058395Y0010700D01*
X0058807Y0011267D01*
X0055400Y0011090D02*
X0054600Y0011090D01*
X0055400Y0011090D01*
X0055400Y0011888D02*
X0054600Y0011888D01*
X0055400Y0011888D01*
X0055400Y0012687D02*
X0054600Y0012687D01*
X0055400Y0012687D01*
X0054600Y0013485D02*
X0031431Y0013485D01*
X0054600Y0013485D01*
X0054600Y0014284D02*
X0055400Y0014284D01*
X0054600Y0014284D01*
X0054600Y0015082D02*
X0055400Y0015082D01*
X0054600Y0015082D01*
X0054600Y0015881D02*
X0055400Y0015881D01*
X0054600Y0015881D01*
X0054600Y0016679D02*
X0055400Y0016679D01*
X0054600Y0016679D01*
X0054600Y0017478D02*
X0055400Y0017478D01*
X0054600Y0017478D01*
X0052806Y0017478D02*
X0025577Y0017478D01*
X0052806Y0017478D01*
X0051784Y0016679D02*
X0026708Y0016679D01*
X0051784Y0016679D01*
X0051166Y0015881D02*
X0027839Y0015881D01*
X0051166Y0015881D01*
X0050801Y0015082D02*
X0028970Y0015082D01*
X0050801Y0015082D01*
X0050602Y0014284D02*
X0030101Y0014284D01*
X0050602Y0014284D01*
X0050638Y0012687D02*
X0033079Y0012687D01*
X0050638Y0012687D01*
X0050877Y0011888D02*
X0034727Y0011888D01*
X0050877Y0011888D01*
X0051322Y0011090D02*
X0036375Y0011090D01*
X0051322Y0011090D01*
X0052014Y0010291D02*
X0038119Y0010291D01*
X0052014Y0010291D01*
X0053257Y0009493D02*
X0040819Y0009493D01*
X0053257Y0009493D01*
X0054600Y0009493D02*
X0055400Y0009493D01*
X0054600Y0009493D01*
X0054600Y0010291D02*
X0055400Y0010291D01*
X0054600Y0010291D01*
X0054489Y0007896D02*
X0054252Y0007896D01*
X0054489Y0007896D01*
X0056511Y0007896D02*
X0056748Y0007896D01*
X0056511Y0007896D01*
X0048819Y0007896D02*
X0046846Y0007896D01*
X0048819Y0007896D01*
X0021186Y0021470D02*
X0087236Y0021470D01*
X0021186Y0021470D01*
X0020376Y0022269D02*
X0086554Y0022269D01*
X0020376Y0022269D01*
X0019566Y0023067D02*
X0086224Y0023067D01*
X0019566Y0023067D01*
X0018761Y0023866D02*
X0086089Y0023866D01*
X0018761Y0023866D01*
X0018181Y0024664D02*
X0086089Y0024664D01*
X0018181Y0024664D01*
X0017600Y0025463D02*
X0086354Y0025463D01*
X0017600Y0025463D01*
X0017019Y0026261D02*
X0086751Y0026261D01*
X0017019Y0026261D01*
X0016438Y0027060D02*
X0087550Y0027060D01*
X0016438Y0027060D01*
X0015858Y0027858D02*
X0092118Y0027858D01*
X0015858Y0027858D01*
X0015277Y0028657D02*
X0091589Y0028657D01*
X0015277Y0028657D01*
X0014696Y0029455D02*
X0091258Y0029455D01*
X0014696Y0029455D01*
X0014126Y0030254D02*
X0091232Y0030254D01*
X0014126Y0030254D01*
X0013725Y0031052D02*
X0091273Y0031052D01*
X0013725Y0031052D01*
X0013324Y0031851D02*
X0091604Y0031851D01*
X0013324Y0031851D01*
X0012923Y0032649D02*
X0092154Y0032649D01*
X0012923Y0032649D01*
X0012523Y0033448D02*
X0093178Y0033448D01*
X0012523Y0033448D01*
X0012122Y0034246D02*
X0067710Y0034246D01*
X0012122Y0034246D01*
X0011721Y0035045D02*
X0066430Y0035045D01*
X0011721Y0035045D01*
X0011320Y0035843D02*
X0065840Y0035843D01*
X0011320Y0035843D01*
X0010919Y0036642D02*
X0065509Y0036642D01*
X0010919Y0036642D01*
X0010557Y0037440D02*
X0065500Y0037440D01*
X0010557Y0037440D01*
X0010309Y0038239D02*
X0039428Y0038239D01*
X0010309Y0038239D01*
X0010061Y0039037D02*
X0038137Y0039037D01*
X0010061Y0039037D01*
X0009812Y0039836D02*
X0037543Y0039836D01*
X0009812Y0039836D01*
X0009564Y0040634D02*
X0037212Y0040634D01*
X0009564Y0040634D01*
X0009316Y0041433D02*
X0037039Y0041433D01*
X0009316Y0041433D01*
X0009067Y0042232D02*
X0036240Y0042232D01*
X0009067Y0042232D01*
X0008819Y0043030D02*
X0035442Y0043030D01*
X0008819Y0043030D01*
X0008571Y0043829D02*
X0034643Y0043829D01*
X0008571Y0043829D01*
X0008322Y0044627D02*
X0023545Y0044627D01*
X0008322Y0044627D01*
X0008162Y0045426D02*
X0022632Y0045426D01*
X0008162Y0045426D01*
X0008018Y0046224D02*
X0021718Y0046224D01*
X0008018Y0046224D01*
X0007874Y0047023D02*
X0020804Y0047023D01*
X0007874Y0047023D01*
X0007729Y0047821D02*
X0019890Y0047821D01*
X0007729Y0047821D01*
X0007997Y0048620D02*
X0018976Y0048620D01*
X0007997Y0048620D01*
X0008332Y0049418D02*
X0018062Y0049418D01*
X0008332Y0049418D01*
X0008400Y0050217D02*
X0017148Y0050217D01*
X0008400Y0050217D01*
X0008235Y0051015D02*
X0016233Y0051015D01*
X0008235Y0051015D01*
X0008088Y0051814D02*
X0015258Y0051814D01*
X0008088Y0051814D01*
X0008200Y0052612D02*
X0014405Y0052612D01*
X0008200Y0052612D01*
X0008078Y0053411D02*
X0014200Y0053411D01*
X0008078Y0053411D01*
X0007945Y0054209D02*
X0014161Y0054209D01*
X0007945Y0054209D01*
X0008100Y0055008D02*
X0014200Y0055008D01*
X0008100Y0055008D01*
X0008022Y0055806D02*
X0014200Y0055806D01*
X0008022Y0055806D01*
X0008002Y0056605D02*
X0014200Y0056605D01*
X0008002Y0056605D01*
X0008200Y0057403D02*
X0014200Y0057403D01*
X0008200Y0057403D01*
X0008165Y0058202D02*
X0014200Y0058202D01*
X0008165Y0058202D01*
X0008117Y0059000D02*
X0014200Y0059000D01*
X0008117Y0059000D01*
X0008400Y0059799D02*
X0014200Y0059799D01*
X0008400Y0059799D01*
X0008400Y0060597D02*
X0010223Y0060597D01*
X0008400Y0060597D01*
X0008119Y0061396D02*
X0009266Y0061396D01*
X0008119Y0061396D01*
X0008577Y0062194D02*
X0007586Y0062194D01*
X0008577Y0062194D01*
X0007779Y0062993D02*
X0007719Y0062993D01*
X0007779Y0062993D01*
X0008900Y0064700D02*
X0009675Y0063925D01*
X0012803Y0063925D01*
X0012803Y0062350D02*
X0012803Y0057803D01*
X0009400Y0055900D01*
X0012803Y0060597D02*
X0012803Y0060597D01*
X0012803Y0060597D01*
X0012803Y0061396D02*
X0012803Y0061396D01*
X0012803Y0061396D01*
X0008900Y0064700D02*
X0009700Y0065500D01*
X0012803Y0065500D01*
X0012803Y0067075D02*
X0015925Y0067075D01*
X0016200Y0067400D01*
X0016200Y0053700D01*
X0024900Y0046100D01*
X0035200Y0046100D01*
X0040000Y0041300D01*
X0040400Y0041300D01*
X0064500Y0041300D01*
X0068700Y0037300D01*
X0070970Y0035045D02*
X0099279Y0035045D01*
X0070970Y0035045D01*
X0071560Y0035843D02*
X0099680Y0035843D01*
X0071560Y0035843D01*
X0071891Y0036642D02*
X0075707Y0036642D01*
X0071891Y0036642D01*
X0071900Y0037440D02*
X0074436Y0037440D01*
X0071900Y0037440D01*
X0071775Y0038239D02*
X0073784Y0038239D01*
X0071775Y0038239D01*
X0071444Y0039037D02*
X0073453Y0039037D01*
X0071444Y0039037D01*
X0070689Y0039836D02*
X0073340Y0039836D01*
X0070689Y0039836D01*
X0070260Y0040634D02*
X0073340Y0040634D01*
X0070260Y0040634D01*
X0070797Y0041433D02*
X0073625Y0041433D01*
X0070797Y0041433D01*
X0071100Y0042232D02*
X0074052Y0042232D01*
X0071100Y0042232D01*
X0071100Y0043030D02*
X0074851Y0043030D01*
X0071100Y0043030D01*
X0070938Y0043829D02*
X0076214Y0043829D01*
X0070938Y0043829D01*
X0070598Y0044627D02*
X0076200Y0044627D01*
X0070598Y0044627D01*
X0069800Y0045426D02*
X0076320Y0045426D01*
X0069800Y0045426D01*
X0067900Y0042800D02*
X0047600Y0042800D01*
X0040900Y0049500D01*
X0036100Y0049500D01*
X0030200Y0054800D01*
X0030200Y0062600D01*
X0027300Y0065500D01*
X0023197Y0065500D01*
X0023197Y0067075D02*
X0026000Y0067100D01*
X0026200Y0067200D01*
X0027100Y0068100D01*
X0027100Y0082700D01*
X0029486Y0080560D02*
X0096750Y0080560D01*
X0029486Y0080560D01*
X0029100Y0079762D02*
X0097252Y0079762D01*
X0029100Y0079762D01*
X0029100Y0078963D02*
X0097753Y0078963D01*
X0029100Y0078963D01*
X0029100Y0078165D02*
X0098238Y0078165D01*
X0029100Y0078165D01*
X0029100Y0077366D02*
X0098592Y0077366D01*
X0029100Y0077366D01*
X0029100Y0076568D02*
X0037261Y0076568D01*
X0029100Y0076568D01*
X0029100Y0075769D02*
X0036244Y0075769D01*
X0029100Y0075769D01*
X0029100Y0074970D02*
X0035763Y0074970D01*
X0029100Y0074970D01*
X0029100Y0074172D02*
X0035500Y0074172D01*
X0029100Y0074172D01*
X0029100Y0073373D02*
X0035500Y0073373D01*
X0029100Y0073373D01*
X0029100Y0072575D02*
X0035702Y0072575D01*
X0029100Y0072575D01*
X0029100Y0071776D02*
X0036098Y0071776D01*
X0029100Y0071776D01*
X0029100Y0070978D02*
X0036910Y0070978D01*
X0029100Y0070978D01*
X0029100Y0070179D02*
X0039392Y0070179D01*
X0029100Y0070179D01*
X0029100Y0069381D02*
X0040191Y0069381D01*
X0029100Y0069381D01*
X0029100Y0068582D02*
X0040989Y0068582D01*
X0029100Y0068582D01*
X0029100Y0067784D02*
X0041788Y0067784D01*
X0029100Y0067784D01*
X0028814Y0066985D02*
X0042586Y0066985D01*
X0028814Y0066985D01*
X0029442Y0066187D02*
X0043385Y0066187D01*
X0029442Y0066187D01*
X0030240Y0065388D02*
X0043363Y0065388D01*
X0030240Y0065388D01*
X0031039Y0064590D02*
X0043300Y0064590D01*
X0031039Y0064590D01*
X0031837Y0063791D02*
X0043371Y0063791D01*
X0031837Y0063791D01*
X0032200Y0062993D02*
X0043702Y0062993D01*
X0032200Y0062993D01*
X0032200Y0062194D02*
X0044380Y0062194D01*
X0032200Y0062194D01*
X0032200Y0061396D02*
X0047500Y0061396D01*
X0032200Y0061396D01*
X0032200Y0060597D02*
X0047500Y0060597D01*
X0032200Y0060597D01*
X0032200Y0059799D02*
X0046770Y0059799D01*
X0032200Y0059799D01*
X0032200Y0059000D02*
X0045972Y0059000D01*
X0032200Y0059000D01*
X0032200Y0058202D02*
X0045173Y0058202D01*
X0032200Y0058202D01*
X0032200Y0057403D02*
X0034188Y0057403D01*
X0032200Y0057403D01*
X0032200Y0056605D02*
X0032979Y0056605D01*
X0032200Y0056605D01*
X0032200Y0055806D02*
X0032419Y0055806D01*
X0032200Y0055806D01*
X0035300Y0054400D02*
X0044200Y0054400D01*
X0050700Y0060900D01*
X0053133Y0062993D02*
X0103281Y0062993D01*
X0053133Y0062993D01*
X0053628Y0062194D02*
X0103413Y0062194D01*
X0053628Y0062194D01*
X0053900Y0061396D02*
X0102881Y0061396D01*
X0053900Y0061396D01*
X0053900Y0060597D02*
X0102600Y0060597D01*
X0053900Y0060597D01*
X0053707Y0059799D02*
X0102600Y0059799D01*
X0053707Y0059799D01*
X0053326Y0059000D02*
X0102883Y0059000D01*
X0053326Y0059000D01*
X0052527Y0058202D02*
X0102835Y0058202D01*
X0052527Y0058202D01*
X0050032Y0057403D02*
X0102800Y0057403D01*
X0050032Y0057403D01*
X0049233Y0056605D02*
X0102998Y0056605D01*
X0049233Y0056605D01*
X0048435Y0055806D02*
X0102978Y0055806D01*
X0048435Y0055806D01*
X0047636Y0055008D02*
X0102900Y0055008D01*
X0047636Y0055008D01*
X0046838Y0054209D02*
X0092103Y0054209D01*
X0046838Y0054209D01*
X0046039Y0053411D02*
X0090885Y0053411D01*
X0046039Y0053411D01*
X0045241Y0052612D02*
X0090321Y0052612D01*
X0045241Y0052612D01*
X0043012Y0050217D02*
X0080391Y0050217D01*
X0043012Y0050217D01*
X0042213Y0051015D02*
X0090000Y0051015D01*
X0042213Y0051015D01*
X0043810Y0049418D02*
X0079593Y0049418D01*
X0043810Y0049418D01*
X0044609Y0048620D02*
X0079259Y0048620D01*
X0044609Y0048620D01*
X0045407Y0047821D02*
X0079100Y0047821D01*
X0045407Y0047821D01*
X0046206Y0047023D02*
X0077397Y0047023D01*
X0046206Y0047023D01*
X0047004Y0046224D02*
X0076650Y0046224D01*
X0047004Y0046224D01*
X0047803Y0045426D02*
X0066000Y0045426D01*
X0047803Y0045426D01*
X0042663Y0039037D02*
X0063976Y0039037D01*
X0042663Y0039037D01*
X0041372Y0038239D02*
X0064814Y0038239D01*
X0041372Y0038239D01*
X0034666Y0048100D02*
X0025651Y0048100D01*
X0023361Y0050100D01*
X0023837Y0050100D01*
X0025013Y0050587D01*
X0025913Y0051487D01*
X0026400Y0052663D01*
X0026400Y0053937D01*
X0025913Y0055113D01*
X0025013Y0056013D01*
X0023837Y0056500D01*
X0022828Y0056500D01*
X0021500Y0057828D01*
X0021500Y0060557D01*
X0023197Y0060557D01*
X0025625Y0060557D01*
X0025981Y0060652D01*
X0026301Y0060836D01*
X0026561Y0061097D01*
X0026746Y0061416D01*
X0026841Y0061772D01*
X0026841Y0062350D01*
X0026522Y0062350D01*
X0026523Y0062350D01*
X0026841Y0062350D01*
X0026522Y0062350D01*
X0026523Y0062350D01*
X0026841Y0062350D01*
X0026841Y0061772D01*
X0026746Y0061416D01*
X0026561Y0061097D01*
X0026301Y0060836D01*
X0025981Y0060652D01*
X0025625Y0060557D01*
X0023197Y0060557D01*
X0023197Y0061931D01*
X0023197Y0061931D01*
X0023197Y0060557D01*
X0023197Y0061931D01*
X0023197Y0061931D01*
X0023197Y0060557D01*
X0021500Y0060557D01*
X0021500Y0057828D01*
X0022828Y0056500D01*
X0023837Y0056500D01*
X0025013Y0056013D01*
X0025913Y0055113D01*
X0026400Y0053937D01*
X0026400Y0052663D01*
X0025913Y0051487D01*
X0025013Y0050587D01*
X0023837Y0050100D01*
X0023361Y0050100D01*
X0025651Y0048100D01*
X0034666Y0048100D01*
X0029434Y0052800D01*
X0029372Y0052800D01*
X0028824Y0053348D01*
X0028247Y0053866D01*
X0028244Y0053928D01*
X0028200Y0053972D01*
X0028200Y0054747D01*
X0028159Y0055520D01*
X0028200Y0055566D01*
X0028200Y0061772D01*
X0027041Y0062931D01*
X0027041Y0062869D01*
X0026841Y0062669D01*
X0026841Y0062350D01*
X0026841Y0062669D01*
X0027041Y0062869D01*
X0027041Y0062931D01*
X0028200Y0061772D01*
X0028200Y0055566D01*
X0028159Y0055520D01*
X0028200Y0054747D01*
X0028200Y0053972D01*
X0028244Y0053928D01*
X0028247Y0053866D01*
X0028824Y0053348D01*
X0029372Y0052800D01*
X0029434Y0052800D01*
X0034666Y0048100D01*
X0034087Y0048620D02*
X0025056Y0048620D01*
X0034087Y0048620D01*
X0033198Y0049418D02*
X0024142Y0049418D01*
X0033198Y0049418D01*
X0032309Y0050217D02*
X0024118Y0050217D01*
X0032309Y0050217D01*
X0031421Y0051015D02*
X0025441Y0051015D01*
X0031421Y0051015D01*
X0030532Y0051814D02*
X0026048Y0051814D01*
X0030532Y0051814D01*
X0029643Y0052612D02*
X0026379Y0052612D01*
X0029643Y0052612D01*
X0028754Y0053411D02*
X0026400Y0053411D01*
X0028754Y0053411D01*
X0028200Y0054209D02*
X0026287Y0054209D01*
X0028200Y0054209D01*
X0028186Y0055008D02*
X0025956Y0055008D01*
X0028186Y0055008D01*
X0028200Y0055806D02*
X0025219Y0055806D01*
X0028200Y0055806D01*
X0028200Y0056605D02*
X0022724Y0056605D01*
X0028200Y0056605D01*
X0028200Y0057403D02*
X0021925Y0057403D01*
X0028200Y0057403D01*
X0028200Y0058202D02*
X0021500Y0058202D01*
X0028200Y0058202D01*
X0028200Y0059000D02*
X0021500Y0059000D01*
X0028200Y0059000D01*
X0028200Y0059799D02*
X0021500Y0059799D01*
X0028200Y0059799D01*
X0028200Y0060597D02*
X0025777Y0060597D01*
X0028200Y0060597D01*
X0028200Y0061396D02*
X0026734Y0061396D01*
X0028200Y0061396D01*
X0027777Y0062194D02*
X0026841Y0062194D01*
X0027777Y0062194D01*
X0024200Y0059000D02*
X0023197Y0060003D01*
X0023197Y0062350D01*
X0023197Y0061396D02*
X0023197Y0061396D01*
X0023197Y0061396D01*
X0023197Y0060597D02*
X0023197Y0060597D01*
X0023197Y0060597D01*
X0019500Y0057000D02*
X0023200Y0053300D01*
X0019500Y0057000D02*
X0019500Y0067900D01*
X0020250Y0068650D01*
X0023197Y0068650D01*
X0025100Y0070978D02*
X0018400Y0070978D01*
X0025100Y0070978D01*
X0025100Y0071776D02*
X0018400Y0071776D01*
X0025100Y0071776D01*
X0025100Y0072575D02*
X0018400Y0072575D01*
X0025100Y0072575D01*
X0025100Y0073373D02*
X0018400Y0073373D01*
X0025100Y0073373D01*
X0025100Y0074172D02*
X0018400Y0074172D01*
X0025100Y0074172D01*
X0025100Y0074970D02*
X0018400Y0074970D01*
X0025100Y0074970D01*
X0025100Y0075769D02*
X0018400Y0075769D01*
X0025100Y0075769D01*
X0025100Y0076568D02*
X0018400Y0076568D01*
X0025100Y0076568D01*
X0025100Y0077366D02*
X0018400Y0077366D01*
X0025100Y0077366D01*
X0025100Y0078165D02*
X0018400Y0078165D01*
X0025100Y0078165D01*
X0025100Y0078963D02*
X0018889Y0078963D01*
X0025100Y0078963D01*
X0025100Y0079762D02*
X0019351Y0079762D01*
X0025100Y0079762D01*
X0024714Y0080560D02*
X0019600Y0080560D01*
X0024714Y0080560D01*
X0024192Y0081359D02*
X0019600Y0081359D01*
X0024192Y0081359D01*
X0023900Y0082157D02*
X0019384Y0082157D01*
X0023900Y0082157D01*
X0023900Y0082956D02*
X0018970Y0082956D01*
X0023900Y0082956D01*
X0024073Y0083754D02*
X0018113Y0083754D01*
X0024073Y0083754D01*
X0024427Y0084553D02*
X0016814Y0084553D01*
X0024427Y0084553D01*
X0025226Y0085351D02*
X0017445Y0085351D01*
X0025226Y0085351D01*
X0028974Y0085351D02*
X0093555Y0085351D01*
X0028974Y0085351D01*
X0029773Y0084553D02*
X0094186Y0084553D01*
X0029773Y0084553D01*
X0030127Y0083754D02*
X0094744Y0083754D01*
X0030127Y0083754D01*
X0030300Y0082956D02*
X0095246Y0082956D01*
X0030300Y0082956D01*
X0030300Y0082157D02*
X0095747Y0082157D01*
X0030300Y0082157D01*
X0030008Y0081359D02*
X0096249Y0081359D01*
X0030008Y0081359D01*
X0038700Y0073700D02*
X0046500Y0065900D01*
X0046500Y0064600D01*
X0049700Y0064590D02*
X0103015Y0064590D01*
X0049700Y0064590D01*
X0049637Y0065388D02*
X0102845Y0065388D01*
X0049637Y0065388D01*
X0049306Y0066187D02*
X0102622Y0066187D01*
X0049306Y0066187D01*
X0048640Y0066985D02*
X0102398Y0066985D01*
X0048640Y0066985D01*
X0047445Y0067784D02*
X0102175Y0067784D01*
X0047445Y0067784D01*
X0046646Y0068582D02*
X0101952Y0068582D01*
X0046646Y0068582D01*
X0045848Y0069381D02*
X0101728Y0069381D01*
X0045848Y0069381D01*
X0045049Y0070179D02*
X0101505Y0070179D01*
X0045049Y0070179D01*
X0044250Y0070978D02*
X0101281Y0070978D01*
X0044250Y0070978D01*
X0043452Y0071776D02*
X0101058Y0071776D01*
X0043452Y0071776D01*
X0042653Y0072575D02*
X0100713Y0072575D01*
X0042653Y0072575D01*
X0041900Y0073373D02*
X0100359Y0073373D01*
X0041900Y0073373D01*
X0041900Y0074172D02*
X0100006Y0074172D01*
X0041900Y0074172D01*
X0041637Y0074970D02*
X0099652Y0074970D01*
X0041637Y0074970D01*
X0041156Y0075769D02*
X0099299Y0075769D01*
X0041156Y0075769D01*
X0040139Y0076568D02*
X0098945Y0076568D01*
X0040139Y0076568D01*
X0048673Y0086150D02*
X0018076Y0086150D01*
X0048673Y0086150D01*
X0062327Y0086150D02*
X0092924Y0086150D01*
X0062327Y0086150D01*
X0052082Y0063791D02*
X0103148Y0063791D01*
X0052082Y0063791D01*
X0044375Y0057403D02*
X0036412Y0057403D01*
X0044375Y0057403D01*
X0043576Y0056605D02*
X0037621Y0056605D01*
X0043576Y0056605D01*
X0037239Y0051814D02*
X0090000Y0051814D01*
X0037239Y0051814D01*
X0018951Y0070179D02*
X0018400Y0070179D01*
X0018951Y0070179D01*
X0016400Y0069599D02*
X0015450Y0068650D01*
X0016100Y0068000D01*
X0016200Y0067400D01*
X0015450Y0068650D02*
X0012803Y0068650D01*
X0016400Y0069599D02*
X0016400Y0081000D01*
X0069690Y0034246D02*
X0098878Y0034246D01*
X0069690Y0034246D01*
X0078172Y0036642D02*
X0100081Y0036642D01*
X0078172Y0036642D01*
X0079443Y0037440D02*
X0100443Y0037440D01*
X0079443Y0037440D01*
X0080095Y0038239D02*
X0082833Y0038239D01*
X0080095Y0038239D01*
X0080426Y0039037D02*
X0082034Y0039037D01*
X0080426Y0039037D01*
X0080540Y0039836D02*
X0081236Y0039836D01*
X0080540Y0039836D01*
X0084100Y0039800D02*
X0091500Y0039800D01*
X0093200Y0041500D01*
X0093200Y0045500D01*
X0094775Y0047075D01*
X0098197Y0047075D01*
X0098197Y0048650D02*
X0095750Y0048650D01*
X0093200Y0051200D01*
X0095515Y0053411D02*
X0102922Y0053411D01*
X0095515Y0053411D01*
X0096079Y0052612D02*
X0102800Y0052612D01*
X0096079Y0052612D01*
X0096400Y0051814D02*
X0102911Y0051814D01*
X0096400Y0051814D01*
X0096400Y0051015D02*
X0102765Y0051015D01*
X0096400Y0051015D01*
X0094297Y0054209D02*
X0103055Y0054209D01*
X0094297Y0054209D01*
X0101530Y0050217D02*
X0102600Y0050217D01*
X0101530Y0050217D01*
X0102041Y0049418D02*
X0102668Y0049418D01*
X0102041Y0049418D01*
X0102041Y0048620D02*
X0103003Y0048620D01*
X0102041Y0048620D01*
X0102041Y0047821D02*
X0103271Y0047821D01*
X0102041Y0047821D01*
X0102041Y0047023D02*
X0103126Y0047023D01*
X0102041Y0047023D01*
X0102041Y0046224D02*
X0102982Y0046224D01*
X0102041Y0046224D01*
X0102041Y0045426D02*
X0102838Y0045426D01*
X0102041Y0045426D01*
X0102041Y0044627D02*
X0102678Y0044627D01*
X0102041Y0044627D01*
X0102041Y0043829D02*
X0102429Y0043829D01*
X0102041Y0043829D01*
X0102041Y0043030D02*
X0102181Y0043030D01*
X0102041Y0043030D01*
X0101436Y0040634D02*
X0101381Y0040634D01*
X0101436Y0040634D01*
X0101188Y0039836D02*
X0094364Y0039836D01*
X0101188Y0039836D01*
X0100939Y0039037D02*
X0093566Y0039037D01*
X0100939Y0039037D01*
X0100691Y0038239D02*
X0092767Y0038239D01*
X0100691Y0038239D01*
X0098477Y0033448D02*
X0096485Y0033448D01*
X0098477Y0033448D01*
X0098077Y0032649D02*
X0097510Y0032649D01*
X0098077Y0032649D01*
X0093093Y0027060D02*
X0091829Y0027060D01*
X0093093Y0027060D01*
X0092627Y0026261D02*
X0093981Y0026261D01*
X0092627Y0026261D01*
X0093025Y0025463D02*
X0093400Y0025463D01*
X0093025Y0025463D01*
X0084100Y0039800D02*
X0079400Y0044500D01*
X0082300Y0047600D02*
X0084400Y0045500D01*
X0087803Y0045500D01*
X0084470Y0050217D02*
X0084209Y0050217D01*
X0084470Y0050217D01*
M02*
