G75*
%MOIN*%
%OFA0B0*%
%FSLAX25Y25*%
%IPPOS*%
%LPD*%
%AMOC8*
5,1,8,0,0,1.08239X$1,22.5*
%
%ADD10C,0.03100*%
%ADD11R,0.02100X0.07800*%
%ADD12R,0.07800X0.02100*%
%ADD13R,0.02677X0.03543*%
%ADD14C,0.06102*%
%ADD15R,0.04724X0.01575*%
%ADD16R,0.02150X0.02110*%
%ADD17R,0.02110X0.02150*%
%ADD18R,0.03543X0.03150*%
%ADD19R,0.02362X0.04724*%
%ADD20C,0.00800*%
%ADD21C,0.03200*%
%ADD22C,0.01000*%
D10*
X0079163Y0034899D03*
X0082377Y0038729D03*
X0086207Y0035515D03*
X0090037Y0032301D03*
X0086823Y0028471D03*
X0082993Y0031685D03*
D11*
X0060700Y0031900D03*
X0055700Y0031900D03*
X0050700Y0031900D03*
X0045700Y0031900D03*
X0045700Y0051300D03*
X0050700Y0051300D03*
X0055700Y0051300D03*
X0060700Y0051300D03*
D12*
X0065000Y0066000D03*
X0065000Y0071000D03*
X0065000Y0076000D03*
X0065000Y0081000D03*
X0084400Y0081000D03*
X0084400Y0076000D03*
X0084400Y0071000D03*
X0084400Y0066000D03*
D13*
X0057402Y0019584D03*
X0052598Y0019584D03*
D14*
X0055000Y0013600D03*
D15*
X0049571Y0070461D03*
X0049571Y0073020D03*
X0049571Y0075580D03*
X0049571Y0078139D03*
X0033429Y0078139D03*
X0033429Y0075580D03*
X0033429Y0073020D03*
X0033429Y0070461D03*
D16*
X0054200Y0072795D03*
X0054200Y0076205D03*
X0058600Y0078095D03*
X0058600Y0081505D03*
X0057000Y0070605D03*
X0057000Y0067195D03*
X0074500Y0061705D03*
X0074500Y0058295D03*
X0083700Y0058805D03*
X0083700Y0055395D03*
X0047200Y0023005D03*
X0047200Y0019595D03*
X0040700Y0028095D03*
X0040700Y0031505D03*
X0027200Y0026605D03*
X0027200Y0023195D03*
X0038500Y0047595D03*
X0038500Y0051005D03*
D17*
X0043395Y0057200D03*
X0046805Y0057200D03*
X0050695Y0057300D03*
X0054105Y0057300D03*
X0061395Y0057500D03*
X0064805Y0057500D03*
X0084395Y0062200D03*
X0087805Y0062200D03*
X0090595Y0071100D03*
X0094005Y0071100D03*
X0093795Y0076000D03*
X0097205Y0076000D03*
X0059205Y0025100D03*
X0055795Y0025100D03*
X0038905Y0014400D03*
X0035495Y0014400D03*
X0035395Y0019800D03*
X0038805Y0019800D03*
X0035905Y0058500D03*
X0032495Y0058500D03*
D18*
X0068541Y0046760D03*
X0073659Y0046760D03*
X0071100Y0054240D03*
D19*
X0032540Y0041328D03*
X0028800Y0041328D03*
X0025060Y0041328D03*
X0025060Y0032272D03*
X0032540Y0032272D03*
D20*
X0025331Y0020672D02*
X0021996Y0020672D01*
X0021186Y0021470D02*
X0024532Y0021470D01*
X0024525Y0021477D02*
X0025462Y0020540D01*
X0027027Y0020540D01*
X0028595Y0018972D01*
X0029767Y0017800D01*
X0033002Y0017800D01*
X0033495Y0017307D01*
X0033495Y0016793D01*
X0032840Y0016138D01*
X0032840Y0012802D01*
X0030797Y0013792D01*
X0024373Y0018328D01*
X0018773Y0023849D01*
X0014148Y0030209D01*
X0010620Y0037238D01*
X0008285Y0044747D01*
X0007648Y0048271D01*
X0008004Y0048627D01*
X0008400Y0049583D01*
X0008400Y0050617D01*
X0008004Y0051573D01*
X0007993Y0051584D01*
X0008200Y0052083D01*
X0008200Y0053117D01*
X0007846Y0053971D01*
X0008100Y0054583D01*
X0008100Y0055617D01*
X0007846Y0056229D01*
X0008200Y0057083D01*
X0008200Y0058117D01*
X0007964Y0058687D01*
X0008004Y0058727D01*
X0008400Y0059683D01*
X0008400Y0060717D01*
X0008004Y0061673D01*
X0007572Y0062105D01*
X0008064Y0065062D01*
X0009957Y0071829D01*
X0012802Y0078255D01*
X0013568Y0079475D01*
X0013687Y0079187D01*
X0014587Y0078287D01*
X0015763Y0077800D01*
X0017037Y0077800D01*
X0018213Y0078287D01*
X0019113Y0079187D01*
X0019600Y0080363D01*
X0019600Y0081637D01*
X0019355Y0082227D01*
X0020728Y0083600D01*
X0024009Y0083600D01*
X0023900Y0083337D01*
X0023900Y0082063D01*
X0024387Y0080887D01*
X0025287Y0079987D01*
X0026463Y0079500D01*
X0027737Y0079500D01*
X0028913Y0079987D01*
X0029625Y0080700D01*
X0035672Y0080700D01*
X0036071Y0080300D01*
X0035976Y0080326D01*
X0033429Y0080326D01*
X0030883Y0080326D01*
X0030527Y0080231D01*
X0030207Y0080046D01*
X0029947Y0079786D01*
X0029762Y0079466D01*
X0029667Y0079110D01*
X0029667Y0078139D01*
X0033429Y0078139D01*
X0033429Y0080326D01*
X0033429Y0078139D01*
X0033429Y0078139D01*
X0033429Y0078139D01*
X0037191Y0078139D01*
X0037191Y0079110D01*
X0037166Y0079206D01*
X0039100Y0077272D01*
X0039567Y0076804D01*
X0039337Y0076900D01*
X0038063Y0076900D01*
X0037391Y0076622D01*
X0037391Y0077030D01*
X0037191Y0077230D01*
X0037191Y0078139D01*
X0033429Y0078139D01*
X0033429Y0078139D01*
X0029667Y0078139D01*
X0029667Y0077580D01*
X0029351Y0077580D01*
X0028772Y0077000D01*
X0028772Y0077000D01*
X0027600Y0075828D01*
X0027600Y0060567D01*
X0029840Y0058327D01*
X0029840Y0056762D01*
X0030777Y0055825D01*
X0032427Y0055825D01*
X0032100Y0055037D01*
X0032100Y0053763D01*
X0032587Y0052587D01*
X0033487Y0051687D01*
X0034663Y0051200D01*
X0035937Y0051200D01*
X0036025Y0051237D01*
X0036025Y0051132D01*
X0038372Y0051132D01*
X0038372Y0050877D01*
X0036025Y0050877D01*
X0036025Y0049766D01*
X0036078Y0049566D01*
X0035825Y0049313D01*
X0035825Y0045877D01*
X0036762Y0044940D01*
X0038327Y0044940D01*
X0038400Y0044867D01*
X0038400Y0043825D01*
X0037902Y0043328D01*
X0035321Y0043328D01*
X0035321Y0044352D01*
X0034384Y0045290D01*
X0030696Y0045290D01*
X0030426Y0045020D01*
X0030165Y0045090D01*
X0028991Y0045090D01*
X0028991Y0041518D01*
X0028609Y0041518D01*
X0028609Y0045090D01*
X0027435Y0045090D01*
X0027174Y0045020D01*
X0027060Y0045134D01*
X0027060Y0052269D01*
X0026400Y0052928D01*
X0026400Y0053937D01*
X0025913Y0055113D01*
X0025013Y0056013D01*
X0023837Y0056500D01*
X0022563Y0056500D01*
X0021387Y0056013D01*
X0020487Y0055113D01*
X0020000Y0053937D01*
X0020000Y0052663D01*
X0020487Y0051487D01*
X0021387Y0050587D01*
X0022563Y0050100D01*
X0023060Y0050100D01*
X0023060Y0045134D01*
X0022279Y0044352D01*
X0022279Y0038303D01*
X0023216Y0037365D01*
X0026904Y0037365D01*
X0027174Y0037635D01*
X0027435Y0037565D01*
X0028609Y0037565D01*
X0028609Y0041137D01*
X0028991Y0041137D01*
X0028991Y0037565D01*
X0030165Y0037565D01*
X0030426Y0037635D01*
X0030696Y0037365D01*
X0034384Y0037365D01*
X0035321Y0038303D01*
X0035321Y0039328D01*
X0037847Y0039328D01*
X0038587Y0038587D01*
X0039763Y0038100D01*
X0041037Y0038100D01*
X0042213Y0038587D01*
X0043113Y0039487D01*
X0043600Y0040663D01*
X0043600Y0041937D01*
X0043113Y0043113D01*
X0042400Y0043825D01*
X0042400Y0045595D01*
X0042823Y0045595D01*
X0043508Y0046279D01*
X0043987Y0045800D01*
X0047413Y0045800D01*
X0048200Y0046587D01*
X0048229Y0046558D01*
X0043700Y0042028D01*
X0043700Y0037113D01*
X0043050Y0036463D01*
X0043050Y0033548D01*
X0042438Y0034160D01*
X0038962Y0034160D01*
X0038025Y0033223D01*
X0038025Y0028248D01*
X0037302Y0027526D01*
X0036805Y0027028D01*
X0036805Y0022475D01*
X0035548Y0022475D01*
X0034540Y0023483D01*
X0034540Y0028466D01*
X0035321Y0029247D01*
X0035321Y0035297D01*
X0034384Y0036235D01*
X0030696Y0036235D01*
X0029759Y0035297D01*
X0029759Y0029247D01*
X0030540Y0028466D01*
X0030540Y0022683D01*
X0029875Y0023348D01*
X0029875Y0024913D01*
X0029622Y0025166D01*
X0029675Y0025366D01*
X0029675Y0026477D01*
X0027328Y0026477D01*
X0027328Y0026732D01*
X0029675Y0026732D01*
X0029675Y0027844D01*
X0029580Y0028200D01*
X0029395Y0028520D01*
X0029135Y0028780D01*
X0028815Y0028965D01*
X0028459Y0029060D01*
X0027653Y0029060D01*
X0027841Y0029247D01*
X0027841Y0035297D01*
X0026904Y0036235D01*
X0023216Y0036235D01*
X0022279Y0035297D01*
X0022279Y0029247D01*
X0023216Y0028310D01*
X0024884Y0028310D01*
X0024820Y0028200D01*
X0024725Y0027844D01*
X0024725Y0026732D01*
X0027072Y0026732D01*
X0027072Y0026477D01*
X0024725Y0026477D01*
X0024725Y0025366D01*
X0024778Y0025166D01*
X0024525Y0024913D01*
X0024525Y0021477D01*
X0024525Y0022269D02*
X0020376Y0022269D01*
X0019566Y0023067D02*
X0024525Y0023067D01*
X0024525Y0023866D02*
X0018761Y0023866D01*
X0018181Y0024664D02*
X0024525Y0024664D01*
X0024725Y0025463D02*
X0017600Y0025463D01*
X0017019Y0026261D02*
X0024725Y0026261D01*
X0024725Y0027060D02*
X0016438Y0027060D01*
X0015858Y0027858D02*
X0024729Y0027858D01*
X0022869Y0028657D02*
X0015277Y0028657D01*
X0014696Y0029455D02*
X0022279Y0029455D01*
X0022279Y0030254D02*
X0014126Y0030254D01*
X0013725Y0031052D02*
X0022279Y0031052D01*
X0022279Y0031851D02*
X0013324Y0031851D01*
X0012923Y0032649D02*
X0022279Y0032649D01*
X0022279Y0033448D02*
X0012523Y0033448D01*
X0012122Y0034246D02*
X0022279Y0034246D01*
X0022279Y0035045D02*
X0011721Y0035045D01*
X0011320Y0035843D02*
X0022825Y0035843D01*
X0023141Y0037440D02*
X0010557Y0037440D01*
X0010309Y0038239D02*
X0022342Y0038239D01*
X0022279Y0039037D02*
X0010061Y0039037D01*
X0009812Y0039836D02*
X0022279Y0039836D01*
X0022279Y0040634D02*
X0009564Y0040634D01*
X0009316Y0041433D02*
X0022279Y0041433D01*
X0022279Y0042232D02*
X0009067Y0042232D01*
X0008819Y0043030D02*
X0022279Y0043030D01*
X0022279Y0043829D02*
X0008571Y0043829D01*
X0008322Y0044627D02*
X0022553Y0044627D01*
X0023060Y0045426D02*
X0008162Y0045426D01*
X0008018Y0046224D02*
X0023060Y0046224D01*
X0023060Y0047023D02*
X0007874Y0047023D01*
X0007729Y0047821D02*
X0023060Y0047821D01*
X0023060Y0048620D02*
X0007997Y0048620D01*
X0008332Y0049418D02*
X0023060Y0049418D01*
X0022282Y0050217D02*
X0008400Y0050217D01*
X0008235Y0051015D02*
X0020959Y0051015D01*
X0020352Y0051814D02*
X0008088Y0051814D01*
X0008200Y0052612D02*
X0020021Y0052612D01*
X0020000Y0053411D02*
X0008078Y0053411D01*
X0007945Y0054209D02*
X0020113Y0054209D01*
X0020444Y0055008D02*
X0008100Y0055008D01*
X0008022Y0055806D02*
X0021181Y0055806D01*
X0023200Y0053300D02*
X0025060Y0051440D01*
X0025060Y0041328D01*
X0028609Y0040634D02*
X0028991Y0040634D01*
X0028991Y0039836D02*
X0028609Y0039836D01*
X0028609Y0039037D02*
X0028991Y0039037D01*
X0028991Y0038239D02*
X0028609Y0038239D01*
X0026979Y0037440D02*
X0030621Y0037440D01*
X0030305Y0035843D02*
X0027295Y0035843D01*
X0027841Y0035045D02*
X0029759Y0035045D01*
X0029759Y0034246D02*
X0027841Y0034246D01*
X0027841Y0033448D02*
X0029759Y0033448D01*
X0029759Y0032649D02*
X0027841Y0032649D01*
X0027841Y0031851D02*
X0029759Y0031851D01*
X0029759Y0031052D02*
X0027841Y0031052D01*
X0027841Y0030254D02*
X0029759Y0030254D01*
X0029759Y0029455D02*
X0027841Y0029455D01*
X0029258Y0028657D02*
X0030350Y0028657D01*
X0030540Y0027858D02*
X0029671Y0027858D01*
X0029675Y0027060D02*
X0030540Y0027060D01*
X0030540Y0026261D02*
X0029675Y0026261D01*
X0029675Y0025463D02*
X0030540Y0025463D01*
X0030540Y0024664D02*
X0029875Y0024664D01*
X0029875Y0023866D02*
X0030540Y0023866D01*
X0030540Y0023067D02*
X0030156Y0023067D01*
X0032540Y0022655D02*
X0032540Y0032272D01*
X0035321Y0032649D02*
X0038025Y0032649D01*
X0038025Y0031851D02*
X0035321Y0031851D01*
X0035321Y0031052D02*
X0038025Y0031052D01*
X0038025Y0030254D02*
X0035321Y0030254D01*
X0035321Y0029455D02*
X0038025Y0029455D01*
X0038025Y0028657D02*
X0034731Y0028657D01*
X0034540Y0027858D02*
X0037635Y0027858D01*
X0036836Y0027060D02*
X0034540Y0027060D01*
X0034540Y0026261D02*
X0036805Y0026261D01*
X0036805Y0025463D02*
X0034540Y0025463D01*
X0034540Y0024664D02*
X0036805Y0024664D01*
X0036805Y0023866D02*
X0034540Y0023866D01*
X0034956Y0023067D02*
X0036805Y0023067D01*
X0035395Y0019800D02*
X0030595Y0019800D01*
X0027200Y0023195D01*
X0027693Y0019873D02*
X0022806Y0019873D01*
X0023615Y0019075D02*
X0028492Y0019075D01*
X0029290Y0018276D02*
X0024446Y0018276D01*
X0025577Y0017478D02*
X0033325Y0017478D01*
X0033381Y0016679D02*
X0026708Y0016679D01*
X0027839Y0015881D02*
X0032840Y0015881D01*
X0032840Y0015082D02*
X0028970Y0015082D01*
X0030101Y0014284D02*
X0032840Y0014284D01*
X0032840Y0013485D02*
X0031431Y0013485D01*
X0035495Y0013205D02*
X0038200Y0010500D01*
X0047200Y0010500D01*
X0049100Y0008600D01*
X0061200Y0008600D01*
X0064800Y0012200D01*
X0064800Y0019700D01*
X0064684Y0019584D01*
X0057402Y0019584D01*
X0060340Y0017584D02*
X0062800Y0017584D01*
X0062800Y0013028D01*
X0060372Y0010600D01*
X0058295Y0010600D01*
X0058395Y0010700D01*
X0058807Y0011267D01*
X0059125Y0011891D01*
X0059342Y0012558D01*
X0059443Y0013200D01*
X0055400Y0013200D01*
X0055400Y0014000D01*
X0059443Y0014000D01*
X0059342Y0014642D01*
X0059125Y0015309D01*
X0058807Y0015933D01*
X0058604Y0016213D01*
X0059403Y0016213D01*
X0060340Y0017150D01*
X0060340Y0017584D01*
X0060340Y0017478D02*
X0062800Y0017478D01*
X0062800Y0016679D02*
X0059869Y0016679D01*
X0058834Y0015881D02*
X0062800Y0015881D01*
X0062800Y0015082D02*
X0059199Y0015082D01*
X0059398Y0014284D02*
X0062800Y0014284D01*
X0062800Y0013485D02*
X0055400Y0013485D01*
X0054600Y0013485D02*
X0041360Y0013485D01*
X0041360Y0013141D02*
X0041360Y0014272D01*
X0039033Y0014272D01*
X0039033Y0014527D01*
X0041360Y0014527D01*
X0041360Y0015462D01*
X0044992Y0015500D01*
X0045787Y0015481D01*
X0045815Y0015508D01*
X0045854Y0015509D01*
X0046410Y0016077D01*
X0047315Y0016940D01*
X0048938Y0016940D01*
X0049660Y0017662D01*
X0049660Y0017150D01*
X0050597Y0016213D01*
X0051396Y0016213D01*
X0051193Y0015933D01*
X0050875Y0015309D01*
X0050658Y0014642D01*
X0050557Y0014000D01*
X0054600Y0014000D01*
X0054600Y0013200D01*
X0050557Y0013200D01*
X0050658Y0012558D01*
X0050875Y0011891D01*
X0051193Y0011267D01*
X0051605Y0010700D01*
X0051705Y0010600D01*
X0049928Y0010600D01*
X0048028Y0012500D01*
X0041100Y0012500D01*
X0041265Y0012785D01*
X0041360Y0013141D01*
X0041208Y0012687D02*
X0050638Y0012687D01*
X0050877Y0011888D02*
X0048640Y0011888D01*
X0049439Y0011090D02*
X0051322Y0011090D01*
X0050602Y0014284D02*
X0039033Y0014284D01*
X0041360Y0015082D02*
X0050801Y0015082D01*
X0051166Y0015881D02*
X0046218Y0015881D01*
X0047042Y0016679D02*
X0050131Y0016679D01*
X0049660Y0017478D02*
X0049475Y0017478D01*
X0047200Y0019595D02*
X0045005Y0017500D01*
X0035495Y0017400D01*
X0035495Y0019700D01*
X0035395Y0019800D01*
X0032540Y0022655D01*
X0038805Y0019800D02*
X0038805Y0026200D01*
X0039302Y0026698D01*
X0040000Y0026000D01*
X0046800Y0026000D01*
X0050700Y0029900D01*
X0050700Y0031900D01*
X0045700Y0031900D02*
X0045700Y0041200D01*
X0050700Y0046200D01*
X0059200Y0046200D01*
X0061300Y0048300D01*
X0061300Y0050700D01*
X0060700Y0051300D01*
X0055800Y0051400D02*
X0055700Y0051300D01*
X0055800Y0051400D02*
X0055800Y0053400D01*
X0055150Y0054050D01*
X0058600Y0057500D01*
X0061395Y0057500D01*
X0064805Y0057500D02*
X0064805Y0059695D01*
X0060700Y0063800D01*
X0047300Y0063800D01*
X0046500Y0064600D01*
X0043300Y0064590D02*
X0031600Y0064590D01*
X0031600Y0065388D02*
X0043363Y0065388D01*
X0043300Y0065237D02*
X0043300Y0063963D01*
X0043787Y0062787D01*
X0044687Y0061887D01*
X0045863Y0061400D01*
X0047137Y0061400D01*
X0047507Y0061553D01*
X0047500Y0061537D01*
X0047500Y0060263D01*
X0047744Y0059675D01*
X0046932Y0059675D01*
X0046932Y0057328D01*
X0046677Y0057328D01*
X0046677Y0059675D01*
X0045566Y0059675D01*
X0045366Y0059622D01*
X0045113Y0059875D01*
X0041677Y0059875D01*
X0040740Y0058938D01*
X0040740Y0055462D01*
X0041395Y0054807D01*
X0041395Y0052777D01*
X0042567Y0051605D01*
X0042872Y0051300D01*
X0041167Y0049595D01*
X0040929Y0049595D01*
X0040975Y0049766D01*
X0040975Y0050877D01*
X0038628Y0050877D01*
X0038628Y0051132D01*
X0040975Y0051132D01*
X0040975Y0052244D01*
X0040880Y0052600D01*
X0040695Y0052920D01*
X0040435Y0053180D01*
X0040115Y0053365D01*
X0039759Y0053460D01*
X0038627Y0053460D01*
X0038627Y0051133D01*
X0038372Y0051133D01*
X0038372Y0053456D01*
X0038500Y0053763D01*
X0038500Y0055037D01*
X0038013Y0056213D01*
X0038012Y0056214D01*
X0038560Y0056762D01*
X0038560Y0060238D01*
X0037623Y0061175D01*
X0032648Y0061175D01*
X0031600Y0062223D01*
X0031600Y0068274D01*
X0033429Y0068274D01*
X0033429Y0070461D01*
X0033429Y0070461D01*
X0033429Y0068274D01*
X0035976Y0068274D01*
X0036332Y0068369D01*
X0036651Y0068554D01*
X0036912Y0068814D01*
X0037096Y0069134D01*
X0037191Y0069490D01*
X0037191Y0070461D01*
X0033429Y0070461D01*
X0033429Y0070461D01*
X0037191Y0070461D01*
X0037191Y0070861D01*
X0038063Y0070500D01*
X0039337Y0070500D01*
X0040513Y0070987D01*
X0041413Y0071887D01*
X0041900Y0073063D01*
X0041900Y0074337D01*
X0041413Y0075513D01*
X0040825Y0076100D01*
X0045609Y0076100D01*
X0045609Y0074129D01*
X0045809Y0073929D01*
X0045809Y0073021D01*
X0049571Y0073021D01*
X0049571Y0073020D02*
X0049350Y0072800D01*
X0049571Y0073020D02*
X0045809Y0073020D01*
X0045809Y0072112D01*
X0045609Y0071912D01*
X0045609Y0069011D01*
X0046546Y0068074D01*
X0052596Y0068074D01*
X0053127Y0068605D01*
X0054571Y0068605D01*
X0054525Y0068434D01*
X0054525Y0067323D01*
X0056872Y0067323D01*
X0056872Y0067067D01*
X0054525Y0067067D01*
X0054525Y0065956D01*
X0054567Y0065800D01*
X0049467Y0065800D01*
X0049213Y0066413D01*
X0048313Y0067313D01*
X0047137Y0067800D01*
X0045863Y0067800D01*
X0044687Y0067313D01*
X0043787Y0066413D01*
X0043300Y0065237D01*
X0043694Y0066187D02*
X0031600Y0066187D01*
X0031600Y0066985D02*
X0044360Y0066985D01*
X0045825Y0067784D02*
X0031600Y0067784D01*
X0033429Y0068582D02*
X0033429Y0068582D01*
X0033429Y0069381D02*
X0033429Y0069381D01*
X0033429Y0070179D02*
X0033429Y0070179D01*
X0033429Y0073020D02*
X0038020Y0073020D01*
X0038700Y0073700D01*
X0041637Y0074970D02*
X0045609Y0074970D01*
X0045609Y0074172D02*
X0041900Y0074172D01*
X0041900Y0073373D02*
X0045809Y0073373D01*
X0045800Y0073000D02*
X0050200Y0073000D01*
X0049571Y0073020D02*
X0053975Y0073020D01*
X0054200Y0072795D01*
X0053575Y0073420D01*
X0054200Y0072795D02*
X0059295Y0072795D01*
X0059900Y0073400D01*
X0069200Y0073400D01*
X0070400Y0072200D01*
X0070400Y0066700D01*
X0069600Y0065900D01*
X0065200Y0065900D01*
X0065000Y0065700D01*
X0065000Y0066000D01*
X0058195Y0066000D01*
X0057000Y0067195D01*
X0056795Y0067400D01*
X0047600Y0067400D01*
X0045400Y0069600D01*
X0045400Y0072600D01*
X0045800Y0073000D01*
X0045809Y0072575D02*
X0041698Y0072575D01*
X0041302Y0071776D02*
X0045609Y0071776D01*
X0045609Y0070978D02*
X0040490Y0070978D01*
X0037191Y0070179D02*
X0045609Y0070179D01*
X0045609Y0069381D02*
X0037162Y0069381D01*
X0036680Y0068582D02*
X0046038Y0068582D01*
X0047175Y0067784D02*
X0054525Y0067784D01*
X0054525Y0066985D02*
X0048640Y0066985D01*
X0049306Y0066187D02*
X0054525Y0066187D01*
X0054565Y0068582D02*
X0053104Y0068582D01*
X0049714Y0070605D02*
X0057000Y0070605D01*
X0057095Y0070700D01*
X0062105Y0070700D01*
X0065000Y0071000D01*
X0065700Y0075300D02*
X0072000Y0075300D01*
X0076000Y0071300D01*
X0076000Y0067200D01*
X0081000Y0062200D01*
X0084395Y0062200D01*
X0087600Y0061995D02*
X0087805Y0062200D01*
X0087805Y0062595D01*
X0084400Y0066000D01*
X0089188Y0068425D02*
X0089900Y0067713D01*
X0089900Y0064498D01*
X0090460Y0063938D01*
X0090460Y0060462D01*
X0089600Y0059602D01*
X0089600Y0059072D01*
X0088428Y0057900D01*
X0088128Y0057600D01*
X0094372Y0057600D01*
X0095205Y0058433D01*
X0095205Y0068625D01*
X0094132Y0068625D01*
X0094132Y0070972D01*
X0093877Y0070972D01*
X0093877Y0068625D01*
X0092766Y0068625D01*
X0092566Y0068678D01*
X0092313Y0068425D01*
X0089188Y0068425D01*
X0089829Y0067784D02*
X0095205Y0067784D01*
X0095205Y0068582D02*
X0092470Y0068582D01*
X0093877Y0069381D02*
X0094132Y0069381D01*
X0094132Y0070179D02*
X0093877Y0070179D01*
X0093877Y0071228D02*
X0093877Y0073575D01*
X0093667Y0073575D01*
X0093667Y0075872D01*
X0091340Y0075872D01*
X0091340Y0074741D01*
X0091435Y0074385D01*
X0091620Y0074065D01*
X0091880Y0073805D01*
X0091932Y0073775D01*
X0089388Y0073775D01*
X0089900Y0074287D01*
X0089900Y0074772D01*
X0091340Y0076212D01*
X0091340Y0076127D01*
X0093667Y0076127D01*
X0093667Y0075872D01*
X0093923Y0075872D01*
X0093923Y0073525D01*
X0094132Y0073525D01*
X0094132Y0071228D01*
X0093877Y0071228D01*
X0093877Y0071776D02*
X0094132Y0071776D01*
X0094132Y0072575D02*
X0093877Y0072575D01*
X0093877Y0073373D02*
X0094132Y0073373D01*
X0093923Y0074172D02*
X0093667Y0074172D01*
X0093667Y0074970D02*
X0093923Y0074970D01*
X0093923Y0075769D02*
X0093667Y0075769D01*
X0093795Y0076000D02*
X0094005Y0075790D01*
X0093923Y0076128D02*
X0093667Y0076128D01*
X0093667Y0078475D01*
X0093603Y0078475D01*
X0094328Y0079200D01*
X0094772Y0079200D01*
X0095205Y0078767D01*
X0095205Y0078429D01*
X0095034Y0078475D01*
X0093923Y0078475D01*
X0093923Y0076128D01*
X0093923Y0076568D02*
X0093667Y0076568D01*
X0093667Y0077366D02*
X0093923Y0077366D01*
X0093923Y0078165D02*
X0093667Y0078165D01*
X0094091Y0078963D02*
X0095009Y0078963D01*
X0097205Y0079595D02*
X0097205Y0076000D01*
X0097205Y0057605D01*
X0095200Y0055600D01*
X0083905Y0055600D01*
X0083700Y0055395D01*
X0082300Y0053995D01*
X0082300Y0047600D01*
X0079100Y0047700D02*
X0078763Y0047700D01*
X0077587Y0047213D01*
X0076747Y0046372D01*
X0074047Y0046372D01*
X0074047Y0047147D01*
X0076831Y0047147D01*
X0076831Y0048519D01*
X0076735Y0048875D01*
X0076551Y0049194D01*
X0076290Y0049455D01*
X0075971Y0049639D01*
X0075615Y0049735D01*
X0074046Y0049735D01*
X0074046Y0047147D01*
X0073272Y0047147D01*
X0073272Y0049735D01*
X0071703Y0049735D01*
X0071347Y0049639D01*
X0071299Y0049611D01*
X0070975Y0049935D01*
X0066804Y0049935D01*
X0066805Y0055107D01*
X0067460Y0055762D01*
X0067460Y0059238D01*
X0066805Y0059893D01*
X0066805Y0060523D01*
X0063778Y0063550D01*
X0064875Y0063550D01*
X0064875Y0065875D01*
X0059700Y0065875D01*
X0059700Y0065800D01*
X0059433Y0065800D01*
X0059475Y0065956D01*
X0059475Y0067067D01*
X0057128Y0067067D01*
X0057128Y0067323D01*
X0059475Y0067323D01*
X0059475Y0068434D01*
X0059422Y0068634D01*
X0059488Y0068700D01*
X0060087Y0068700D01*
X0060437Y0068350D01*
X0060552Y0068350D01*
X0060240Y0068170D01*
X0059980Y0067910D01*
X0059795Y0067590D01*
X0059700Y0067234D01*
X0059700Y0066125D01*
X0064875Y0066125D01*
X0064875Y0065875D01*
X0065125Y0065875D01*
X0065125Y0066125D01*
X0070300Y0066125D01*
X0070300Y0067234D01*
X0070205Y0067590D01*
X0070020Y0067910D01*
X0069760Y0068170D01*
X0069448Y0068350D01*
X0069563Y0068350D01*
X0070500Y0069287D01*
X0070500Y0072713D01*
X0069913Y0073300D01*
X0071172Y0073300D01*
X0074000Y0070472D01*
X0074000Y0066372D01*
X0075172Y0065200D01*
X0080142Y0060229D01*
X0076922Y0060267D01*
X0076975Y0060466D01*
X0076975Y0061577D01*
X0074628Y0061577D01*
X0074628Y0061832D01*
X0076975Y0061832D01*
X0076975Y0062944D01*
X0076880Y0063300D01*
X0076695Y0063620D01*
X0076435Y0063880D01*
X0076115Y0064065D01*
X0075759Y0064160D01*
X0074627Y0064160D01*
X0074627Y0061833D01*
X0074372Y0061833D01*
X0074372Y0064160D01*
X0073241Y0064160D01*
X0072885Y0064065D01*
X0072565Y0063880D01*
X0072305Y0063620D01*
X0072120Y0063300D01*
X0072025Y0062944D01*
X0072025Y0061832D01*
X0074372Y0061832D01*
X0074372Y0061577D01*
X0072025Y0061577D01*
X0072025Y0060466D01*
X0072078Y0060266D01*
X0071825Y0060013D01*
X0071825Y0058068D01*
X0071333Y0057415D01*
X0068666Y0057415D01*
X0067728Y0056478D01*
X0067728Y0052003D01*
X0068666Y0051065D01*
X0073534Y0051065D01*
X0074472Y0052003D01*
X0074472Y0054934D01*
X0075004Y0055640D01*
X0076238Y0055640D01*
X0076865Y0056267D01*
X0081025Y0056219D01*
X0081025Y0055548D01*
X0080300Y0054823D01*
X0080300Y0050125D01*
X0079587Y0049413D01*
X0079100Y0048237D01*
X0079100Y0047700D01*
X0079100Y0047821D02*
X0076831Y0047821D01*
X0076804Y0048620D02*
X0079259Y0048620D01*
X0079593Y0049418D02*
X0076327Y0049418D01*
X0074046Y0049418D02*
X0073272Y0049418D01*
X0073272Y0048620D02*
X0074046Y0048620D01*
X0074046Y0047821D02*
X0073272Y0047821D01*
X0074047Y0047023D02*
X0077397Y0047023D01*
X0079400Y0044500D02*
X0082377Y0041523D01*
X0082377Y0038729D01*
X0086207Y0035515D02*
X0093200Y0042508D01*
X0093200Y0051200D01*
X0095325Y0053600D02*
X0096028Y0053600D01*
X0097200Y0054772D01*
X0099205Y0056777D01*
X0099205Y0073607D01*
X0099860Y0074262D01*
X0099860Y0074502D01*
X0101043Y0071829D01*
X0102936Y0065062D01*
X0103428Y0062105D01*
X0102996Y0061673D01*
X0102600Y0060717D01*
X0102600Y0059683D01*
X0102996Y0058727D01*
X0103036Y0058687D01*
X0102800Y0058117D01*
X0102800Y0057083D01*
X0103154Y0056229D01*
X0102900Y0055617D01*
X0102900Y0054583D01*
X0103154Y0053971D01*
X0102800Y0053117D01*
X0102800Y0052083D01*
X0103007Y0051584D01*
X0102996Y0051573D01*
X0102600Y0050617D01*
X0102600Y0049583D01*
X0102996Y0048627D01*
X0103352Y0048271D01*
X0102715Y0044747D01*
X0100380Y0037238D01*
X0097886Y0032269D01*
X0097884Y0032276D01*
X0096871Y0033288D01*
X0095548Y0033836D01*
X0094116Y0033836D01*
X0093025Y0033384D01*
X0092542Y0034311D01*
X0091582Y0035117D01*
X0090387Y0035494D01*
X0089379Y0035406D01*
X0089342Y0035822D01*
X0095200Y0041680D01*
X0095200Y0043337D01*
X0095200Y0048675D01*
X0095913Y0049387D01*
X0096400Y0050563D01*
X0096400Y0051837D01*
X0095913Y0053013D01*
X0095325Y0053600D01*
X0095515Y0053411D02*
X0102922Y0053411D01*
X0102800Y0052612D02*
X0096079Y0052612D01*
X0096400Y0051814D02*
X0102911Y0051814D01*
X0102765Y0051015D02*
X0096400Y0051015D01*
X0096256Y0050217D02*
X0102600Y0050217D01*
X0102668Y0049418D02*
X0095926Y0049418D01*
X0095200Y0048620D02*
X0103003Y0048620D01*
X0103271Y0047821D02*
X0095200Y0047821D01*
X0095200Y0047023D02*
X0103126Y0047023D01*
X0102982Y0046224D02*
X0095200Y0046224D01*
X0095200Y0045426D02*
X0102838Y0045426D01*
X0102678Y0044627D02*
X0095200Y0044627D01*
X0095200Y0043829D02*
X0102429Y0043829D01*
X0102181Y0043030D02*
X0095200Y0043030D01*
X0095200Y0042232D02*
X0101933Y0042232D01*
X0101684Y0041433D02*
X0094953Y0041433D01*
X0094155Y0040634D02*
X0101436Y0040634D01*
X0101188Y0039836D02*
X0093356Y0039836D01*
X0092558Y0039037D02*
X0100939Y0039037D01*
X0100691Y0038239D02*
X0091759Y0038239D01*
X0090961Y0037440D02*
X0100443Y0037440D01*
X0100081Y0036642D02*
X0090162Y0036642D01*
X0089364Y0035843D02*
X0099680Y0035843D01*
X0099279Y0035045D02*
X0091668Y0035045D01*
X0092576Y0034246D02*
X0098878Y0034246D01*
X0098477Y0033448D02*
X0096485Y0033448D01*
X0097510Y0032649D02*
X0098077Y0032649D01*
X0093178Y0033448D02*
X0092991Y0033448D01*
X0086869Y0027943D02*
X0085225Y0025983D01*
X0085659Y0025745D01*
X0086213Y0025570D01*
X0086390Y0025551D01*
X0086089Y0024824D01*
X0086089Y0023392D01*
X0086637Y0022069D01*
X0087650Y0021056D01*
X0088878Y0020547D01*
X0086627Y0018328D01*
X0080203Y0013792D01*
X0073126Y0010363D01*
X0065584Y0008133D01*
X0063158Y0007730D01*
X0063200Y0007772D01*
X0066800Y0011372D01*
X0066800Y0019712D01*
X0066802Y0034673D01*
X0066887Y0034587D01*
X0068063Y0034100D01*
X0068901Y0034100D01*
X0068901Y0034070D01*
X0069456Y0033515D01*
X0069987Y0032937D01*
X0070037Y0032934D01*
X0070073Y0032899D01*
X0070858Y0032899D01*
X0071642Y0032865D01*
X0071679Y0032899D01*
X0076653Y0032899D01*
X0076658Y0032889D01*
X0077618Y0032083D01*
X0078813Y0031706D01*
X0079821Y0031794D01*
X0079910Y0030786D01*
X0080488Y0029675D01*
X0081448Y0028869D01*
X0082643Y0028492D01*
X0083870Y0028600D01*
X0083859Y0028503D01*
X0083910Y0027924D01*
X0084072Y0027366D01*
X0084341Y0026851D01*
X0084651Y0026465D01*
X0086295Y0028425D01*
X0086869Y0027943D01*
X0086799Y0027858D02*
X0085820Y0027858D01*
X0086129Y0027060D02*
X0085150Y0027060D01*
X0085459Y0026261D02*
X0066801Y0026261D01*
X0066801Y0025463D02*
X0086354Y0025463D01*
X0086089Y0024664D02*
X0066801Y0024664D01*
X0066801Y0023866D02*
X0086089Y0023866D01*
X0086224Y0023067D02*
X0066800Y0023067D01*
X0066800Y0022269D02*
X0086554Y0022269D01*
X0087236Y0021470D02*
X0066800Y0021470D01*
X0066800Y0020672D02*
X0088578Y0020672D01*
X0088194Y0019873D02*
X0066800Y0019873D01*
X0066800Y0019075D02*
X0087385Y0019075D01*
X0086554Y0018276D02*
X0066800Y0018276D01*
X0066800Y0017478D02*
X0085423Y0017478D01*
X0084292Y0016679D02*
X0066800Y0016679D01*
X0066800Y0015881D02*
X0083161Y0015881D01*
X0082030Y0015082D02*
X0066800Y0015082D01*
X0066800Y0014284D02*
X0080899Y0014284D01*
X0079569Y0013485D02*
X0066800Y0013485D01*
X0066800Y0012687D02*
X0077921Y0012687D01*
X0076273Y0011888D02*
X0066800Y0011888D01*
X0066518Y0011090D02*
X0074625Y0011090D01*
X0072881Y0010291D02*
X0065719Y0010291D01*
X0064921Y0009493D02*
X0070181Y0009493D01*
X0067480Y0008694D02*
X0064122Y0008694D01*
X0064154Y0007896D02*
X0063324Y0007896D01*
X0063200Y0007772D02*
X0063200Y0007772D01*
X0060861Y0011090D02*
X0058678Y0011090D01*
X0059123Y0011888D02*
X0061660Y0011888D01*
X0062458Y0012687D02*
X0059362Y0012687D01*
X0064800Y0019700D02*
X0064805Y0057500D01*
X0067460Y0057403D02*
X0068654Y0057403D01*
X0067855Y0056605D02*
X0067460Y0056605D01*
X0067460Y0055806D02*
X0067728Y0055806D01*
X0067728Y0055008D02*
X0066805Y0055008D01*
X0066805Y0054209D02*
X0067728Y0054209D01*
X0067728Y0053411D02*
X0066804Y0053411D01*
X0066804Y0052612D02*
X0067728Y0052612D01*
X0067917Y0051814D02*
X0066804Y0051814D01*
X0066804Y0051015D02*
X0080300Y0051015D01*
X0080300Y0050217D02*
X0066804Y0050217D01*
X0068541Y0046760D02*
X0068541Y0043441D01*
X0067900Y0042800D01*
X0070260Y0040634D02*
X0073340Y0040634D01*
X0073340Y0040744D02*
X0073340Y0039312D01*
X0073888Y0037989D01*
X0074900Y0036976D01*
X0075087Y0036899D01*
X0071900Y0036899D01*
X0071900Y0037937D01*
X0071413Y0039113D01*
X0070513Y0040013D01*
X0069894Y0040269D01*
X0070613Y0040987D01*
X0071100Y0042163D01*
X0071100Y0043437D01*
X0071020Y0043630D01*
X0071299Y0043908D01*
X0071347Y0043880D01*
X0071703Y0043785D01*
X0073272Y0043785D01*
X0073272Y0046372D01*
X0074046Y0046372D01*
X0074046Y0043785D01*
X0075615Y0043785D01*
X0075971Y0043880D01*
X0076200Y0044013D01*
X0076200Y0043863D01*
X0076298Y0043628D01*
X0076223Y0043628D01*
X0074900Y0043080D01*
X0073888Y0042067D01*
X0073340Y0040744D01*
X0073625Y0041433D02*
X0070797Y0041433D01*
X0071100Y0042232D02*
X0074052Y0042232D01*
X0074851Y0043030D02*
X0071100Y0043030D01*
X0071219Y0043829D02*
X0071541Y0043829D01*
X0073272Y0043829D02*
X0074046Y0043829D01*
X0074046Y0044627D02*
X0073272Y0044627D01*
X0073272Y0045426D02*
X0074046Y0045426D01*
X0074046Y0046224D02*
X0073272Y0046224D01*
X0075777Y0043829D02*
X0076214Y0043829D01*
X0073340Y0039836D02*
X0070689Y0039836D01*
X0071444Y0039037D02*
X0073453Y0039037D01*
X0073784Y0038239D02*
X0071775Y0038239D01*
X0071900Y0037440D02*
X0074436Y0037440D01*
X0070901Y0034899D02*
X0068700Y0037300D01*
X0070901Y0034899D02*
X0079163Y0034899D01*
X0076943Y0032649D02*
X0066802Y0032649D01*
X0066802Y0031851D02*
X0078354Y0031851D01*
X0079886Y0031052D02*
X0066801Y0031052D01*
X0066801Y0030254D02*
X0080187Y0030254D01*
X0080750Y0029455D02*
X0066801Y0029455D01*
X0066801Y0028657D02*
X0082121Y0028657D01*
X0083929Y0027858D02*
X0066801Y0027858D01*
X0066801Y0027060D02*
X0084232Y0027060D01*
X0069518Y0033448D02*
X0066802Y0033448D01*
X0066802Y0034246D02*
X0067710Y0034246D01*
X0062802Y0036728D02*
X0062610Y0036920D01*
X0062290Y0037105D01*
X0061934Y0037200D01*
X0060825Y0037200D01*
X0060825Y0032025D01*
X0060575Y0032025D01*
X0060575Y0037200D01*
X0059466Y0037200D01*
X0059110Y0037105D01*
X0058790Y0036920D01*
X0058530Y0036660D01*
X0058350Y0036348D01*
X0058350Y0036463D01*
X0057413Y0037400D01*
X0053987Y0037400D01*
X0053200Y0036613D01*
X0052413Y0037400D01*
X0048987Y0037400D01*
X0048200Y0036613D01*
X0047700Y0037113D01*
X0047700Y0040372D01*
X0051528Y0044200D01*
X0060028Y0044200D01*
X0061628Y0045800D01*
X0062413Y0045800D01*
X0062804Y0046191D01*
X0062802Y0036728D01*
X0062802Y0037440D02*
X0047700Y0037440D01*
X0047700Y0038239D02*
X0062802Y0038239D01*
X0062803Y0039037D02*
X0047700Y0039037D01*
X0047700Y0039836D02*
X0062803Y0039836D01*
X0062803Y0040634D02*
X0047963Y0040634D01*
X0048761Y0041433D02*
X0062803Y0041433D01*
X0062803Y0042232D02*
X0049560Y0042232D01*
X0050358Y0043030D02*
X0062803Y0043030D01*
X0062803Y0043829D02*
X0051157Y0043829D01*
X0047896Y0046224D02*
X0047837Y0046224D01*
X0047097Y0045426D02*
X0042400Y0045426D01*
X0042400Y0044627D02*
X0046299Y0044627D01*
X0045500Y0043829D02*
X0042400Y0043829D01*
X0043147Y0043030D02*
X0044702Y0043030D01*
X0043903Y0042232D02*
X0043478Y0042232D01*
X0043600Y0041433D02*
X0043700Y0041433D01*
X0043700Y0040634D02*
X0043588Y0040634D01*
X0043700Y0039836D02*
X0043257Y0039836D01*
X0043700Y0039037D02*
X0042663Y0039037D01*
X0043700Y0038239D02*
X0041372Y0038239D01*
X0039428Y0038239D02*
X0035258Y0038239D01*
X0035321Y0039037D02*
X0038137Y0039037D01*
X0040372Y0041328D02*
X0040400Y0041300D01*
X0040400Y0045695D01*
X0038500Y0047595D01*
X0041995Y0047595D01*
X0045700Y0051300D01*
X0043395Y0053605D01*
X0043395Y0057200D01*
X0041195Y0055008D02*
X0038500Y0055008D01*
X0038500Y0054209D02*
X0041395Y0054209D01*
X0041395Y0053411D02*
X0039943Y0053411D01*
X0040873Y0052612D02*
X0041559Y0052612D01*
X0040975Y0051814D02*
X0042358Y0051814D01*
X0042587Y0051015D02*
X0038628Y0051015D01*
X0038372Y0051015D02*
X0027060Y0051015D01*
X0027060Y0050217D02*
X0036025Y0050217D01*
X0035930Y0049418D02*
X0027060Y0049418D01*
X0027060Y0048620D02*
X0035825Y0048620D01*
X0035825Y0047821D02*
X0027060Y0047821D01*
X0027060Y0047023D02*
X0035825Y0047023D01*
X0035825Y0046224D02*
X0027060Y0046224D01*
X0027060Y0045426D02*
X0036277Y0045426D01*
X0035047Y0044627D02*
X0038400Y0044627D01*
X0038400Y0043829D02*
X0035321Y0043829D01*
X0032540Y0041328D02*
X0040372Y0041328D01*
X0043700Y0037440D02*
X0034459Y0037440D01*
X0034775Y0035843D02*
X0043050Y0035843D01*
X0043050Y0035045D02*
X0035321Y0035045D01*
X0035321Y0034246D02*
X0043050Y0034246D01*
X0043229Y0036642D02*
X0010919Y0036642D01*
X0028609Y0042232D02*
X0028991Y0042232D01*
X0028991Y0043030D02*
X0028609Y0043030D01*
X0028609Y0043829D02*
X0028991Y0043829D01*
X0028991Y0044627D02*
X0028609Y0044627D01*
X0027060Y0051814D02*
X0033361Y0051814D01*
X0032577Y0052612D02*
X0026716Y0052612D01*
X0026400Y0053411D02*
X0032246Y0053411D01*
X0032100Y0054209D02*
X0026287Y0054209D01*
X0025956Y0055008D02*
X0032100Y0055008D01*
X0032419Y0055806D02*
X0025219Y0055806D01*
X0029840Y0057403D02*
X0008200Y0057403D01*
X0008165Y0058202D02*
X0029840Y0058202D01*
X0029166Y0059000D02*
X0008117Y0059000D01*
X0008400Y0059799D02*
X0028368Y0059799D01*
X0027600Y0060597D02*
X0008400Y0060597D01*
X0008119Y0061396D02*
X0027600Y0061396D01*
X0027600Y0062194D02*
X0007586Y0062194D01*
X0007719Y0062993D02*
X0027600Y0062993D01*
X0027600Y0063791D02*
X0007852Y0063791D01*
X0007985Y0064590D02*
X0027600Y0064590D01*
X0027600Y0065388D02*
X0008155Y0065388D01*
X0008378Y0066187D02*
X0027600Y0066187D01*
X0027600Y0066985D02*
X0008602Y0066985D01*
X0008825Y0067784D02*
X0027600Y0067784D01*
X0027600Y0068582D02*
X0009048Y0068582D01*
X0009272Y0069381D02*
X0027600Y0069381D01*
X0027600Y0070179D02*
X0009495Y0070179D01*
X0009719Y0070978D02*
X0027600Y0070978D01*
X0027600Y0071776D02*
X0009942Y0071776D01*
X0010287Y0072575D02*
X0027600Y0072575D01*
X0027600Y0073373D02*
X0010641Y0073373D01*
X0010994Y0074172D02*
X0027600Y0074172D01*
X0027600Y0074970D02*
X0011348Y0074970D01*
X0011701Y0075769D02*
X0027600Y0075769D01*
X0028339Y0076568D02*
X0012055Y0076568D01*
X0012408Y0077366D02*
X0029138Y0077366D01*
X0029667Y0078165D02*
X0017917Y0078165D01*
X0018889Y0078963D02*
X0029667Y0078963D01*
X0029933Y0079762D02*
X0028368Y0079762D01*
X0029486Y0080560D02*
X0035812Y0080560D01*
X0037191Y0078963D02*
X0037409Y0078963D01*
X0037191Y0078165D02*
X0038207Y0078165D01*
X0039006Y0077366D02*
X0037191Y0077366D01*
X0033429Y0078165D02*
X0033429Y0078165D01*
X0033429Y0078963D02*
X0033429Y0078963D01*
X0033429Y0079762D02*
X0033429Y0079762D01*
X0036500Y0082700D02*
X0041100Y0078100D01*
X0049532Y0078100D01*
X0049571Y0078139D01*
X0049571Y0075580D02*
X0053575Y0075580D01*
X0054200Y0076205D01*
X0054200Y0081000D01*
X0053900Y0081300D01*
X0041600Y0081300D01*
X0037300Y0085600D01*
X0019900Y0085600D01*
X0016400Y0082100D01*
X0016400Y0081000D01*
X0019351Y0079762D02*
X0025832Y0079762D01*
X0024714Y0080560D02*
X0019600Y0080560D01*
X0019600Y0081359D02*
X0024192Y0081359D01*
X0023900Y0082157D02*
X0019384Y0082157D01*
X0020084Y0082956D02*
X0023900Y0082956D01*
X0027100Y0082700D02*
X0036500Y0082700D01*
X0033429Y0075580D02*
X0030180Y0075580D01*
X0029600Y0075000D01*
X0029600Y0061395D01*
X0032495Y0058500D01*
X0032800Y0058805D01*
X0029998Y0056605D02*
X0008002Y0056605D01*
X0031629Y0062194D02*
X0044380Y0062194D01*
X0043702Y0062993D02*
X0031600Y0062993D01*
X0031600Y0063791D02*
X0043371Y0063791D01*
X0047500Y0061396D02*
X0032428Y0061396D01*
X0035905Y0058500D02*
X0035905Y0055005D01*
X0035300Y0054400D01*
X0038181Y0055806D02*
X0040740Y0055806D01*
X0040740Y0056605D02*
X0038402Y0056605D01*
X0038560Y0057403D02*
X0040740Y0057403D01*
X0040740Y0058202D02*
X0038560Y0058202D01*
X0038560Y0059000D02*
X0040803Y0059000D01*
X0041601Y0059799D02*
X0038560Y0059799D01*
X0038200Y0060597D02*
X0047500Y0060597D01*
X0047692Y0059799D02*
X0045189Y0059799D01*
X0046677Y0059000D02*
X0046932Y0059000D01*
X0046932Y0058202D02*
X0046677Y0058202D01*
X0046677Y0057403D02*
X0046932Y0057403D01*
X0047100Y0057495D02*
X0046805Y0057200D01*
X0050695Y0057300D02*
X0050695Y0051305D01*
X0050700Y0051300D01*
X0054105Y0055095D02*
X0055150Y0054050D01*
X0054105Y0055095D02*
X0054105Y0057300D01*
X0050800Y0056595D02*
X0050700Y0060900D01*
X0059475Y0066187D02*
X0059700Y0066187D01*
X0059700Y0066985D02*
X0059475Y0066985D01*
X0059475Y0067784D02*
X0059907Y0067784D01*
X0060205Y0068582D02*
X0059435Y0068582D01*
X0059500Y0072700D02*
X0059298Y0072700D01*
X0058738Y0073260D01*
X0056675Y0073260D01*
X0056675Y0074034D01*
X0056622Y0074234D01*
X0056875Y0074487D01*
X0056875Y0075799D01*
X0056985Y0075735D01*
X0057341Y0075640D01*
X0058472Y0075640D01*
X0058472Y0077967D01*
X0058727Y0077967D01*
X0058727Y0075640D01*
X0059500Y0075640D01*
X0059500Y0074287D01*
X0060287Y0073500D01*
X0059500Y0072713D01*
X0059500Y0072700D01*
X0060161Y0073373D02*
X0056675Y0073373D01*
X0056638Y0074172D02*
X0059615Y0074172D01*
X0059500Y0074970D02*
X0056875Y0074970D01*
X0056875Y0075769D02*
X0056926Y0075769D01*
X0058472Y0075769D02*
X0058727Y0075769D01*
X0058727Y0076568D02*
X0058472Y0076568D01*
X0058472Y0077366D02*
X0058727Y0077366D01*
X0059200Y0077495D02*
X0058600Y0078095D01*
X0058600Y0081505D02*
X0054405Y0081505D01*
X0054200Y0081300D01*
X0053900Y0081300D01*
X0058600Y0081505D02*
X0063195Y0086100D01*
X0081800Y0086100D01*
X0084400Y0083500D01*
X0084400Y0081000D01*
X0081422Y0083650D02*
X0079837Y0083650D01*
X0078900Y0082713D01*
X0078900Y0079287D01*
X0079687Y0078500D01*
X0078900Y0077713D01*
X0078900Y0074287D01*
X0079687Y0073500D01*
X0078900Y0072713D01*
X0078900Y0069287D01*
X0079687Y0068500D01*
X0078900Y0067713D01*
X0078900Y0067128D01*
X0078000Y0068028D01*
X0078000Y0072128D01*
X0076828Y0073300D01*
X0072828Y0077300D01*
X0070500Y0077300D01*
X0070500Y0077713D01*
X0069713Y0078500D01*
X0070500Y0079287D01*
X0070500Y0082713D01*
X0069563Y0083650D01*
X0063573Y0083650D01*
X0064023Y0084100D01*
X0080972Y0084100D01*
X0081422Y0083650D01*
X0081317Y0083754D02*
X0063678Y0083754D01*
X0065000Y0081000D02*
X0065000Y0076000D01*
X0065700Y0075300D01*
X0070048Y0078165D02*
X0079352Y0078165D01*
X0079224Y0078963D02*
X0070176Y0078963D01*
X0070500Y0079762D02*
X0078900Y0079762D01*
X0078900Y0080560D02*
X0070500Y0080560D01*
X0070500Y0081359D02*
X0078900Y0081359D01*
X0078900Y0082157D02*
X0070500Y0082157D01*
X0070257Y0082956D02*
X0079143Y0082956D01*
X0078900Y0077366D02*
X0070500Y0077366D01*
X0073561Y0076568D02*
X0078900Y0076568D01*
X0078900Y0075769D02*
X0074359Y0075769D01*
X0075158Y0074970D02*
X0078900Y0074970D01*
X0079015Y0074172D02*
X0075956Y0074172D01*
X0076755Y0073373D02*
X0079561Y0073373D01*
X0078900Y0072575D02*
X0077553Y0072575D01*
X0078000Y0071776D02*
X0078900Y0071776D01*
X0078900Y0070978D02*
X0078000Y0070978D01*
X0078000Y0070179D02*
X0078900Y0070179D01*
X0078900Y0069381D02*
X0078000Y0069381D01*
X0078000Y0068582D02*
X0079605Y0068582D01*
X0078971Y0067784D02*
X0078245Y0067784D01*
X0075782Y0064590D02*
X0070253Y0064590D01*
X0070300Y0064766D02*
X0070300Y0065875D01*
X0065125Y0065875D01*
X0065125Y0063550D01*
X0069084Y0063550D01*
X0069440Y0063645D01*
X0069760Y0063830D01*
X0070020Y0064090D01*
X0070205Y0064410D01*
X0070300Y0064766D01*
X0070300Y0065388D02*
X0074983Y0065388D01*
X0074185Y0066187D02*
X0070300Y0066187D01*
X0070300Y0066985D02*
X0074000Y0066985D01*
X0074000Y0067784D02*
X0070093Y0067784D01*
X0069795Y0068582D02*
X0074000Y0068582D01*
X0074000Y0069381D02*
X0070500Y0069381D01*
X0070500Y0070179D02*
X0074000Y0070179D01*
X0073494Y0070978D02*
X0070500Y0070978D01*
X0070500Y0071776D02*
X0072695Y0071776D01*
X0071897Y0072575D02*
X0070500Y0072575D01*
X0065125Y0065388D02*
X0064875Y0065388D01*
X0064875Y0064590D02*
X0065125Y0064590D01*
X0065125Y0063791D02*
X0064875Y0063791D01*
X0064336Y0062993D02*
X0072038Y0062993D01*
X0072025Y0062194D02*
X0065134Y0062194D01*
X0065933Y0061396D02*
X0072025Y0061396D01*
X0072025Y0060597D02*
X0066731Y0060597D01*
X0066899Y0059799D02*
X0071825Y0059799D01*
X0071825Y0059000D02*
X0067460Y0059000D01*
X0067460Y0058202D02*
X0071825Y0058202D01*
X0074500Y0058295D02*
X0083090Y0058195D01*
X0083700Y0058805D01*
X0086505Y0058805D01*
X0087600Y0059900D01*
X0087600Y0061995D01*
X0089796Y0059799D02*
X0095205Y0059799D01*
X0095205Y0060597D02*
X0090460Y0060597D01*
X0090460Y0061396D02*
X0095205Y0061396D01*
X0095205Y0062194D02*
X0090460Y0062194D01*
X0090460Y0062993D02*
X0095205Y0062993D01*
X0095205Y0063791D02*
X0090460Y0063791D01*
X0089900Y0064590D02*
X0095205Y0064590D01*
X0095205Y0065388D02*
X0089900Y0065388D01*
X0089900Y0066187D02*
X0095205Y0066187D01*
X0095205Y0066985D02*
X0089900Y0066985D01*
X0090595Y0071100D02*
X0084500Y0071100D01*
X0084400Y0071000D01*
X0089785Y0074172D02*
X0091558Y0074172D01*
X0091340Y0074970D02*
X0090099Y0074970D01*
X0090897Y0075769D02*
X0091340Y0075769D01*
X0088300Y0076000D02*
X0093500Y0081200D01*
X0095600Y0081200D01*
X0097205Y0079595D01*
X0099770Y0074172D02*
X0100006Y0074172D01*
X0100359Y0073373D02*
X0099205Y0073373D01*
X0099205Y0072575D02*
X0100713Y0072575D01*
X0101058Y0071776D02*
X0099205Y0071776D01*
X0099205Y0070978D02*
X0101281Y0070978D01*
X0101505Y0070179D02*
X0099205Y0070179D01*
X0099205Y0069381D02*
X0101728Y0069381D01*
X0101952Y0068582D02*
X0099205Y0068582D01*
X0099205Y0067784D02*
X0102175Y0067784D01*
X0102398Y0066985D02*
X0099205Y0066985D01*
X0099205Y0066187D02*
X0102622Y0066187D01*
X0102845Y0065388D02*
X0099205Y0065388D01*
X0099205Y0064590D02*
X0103015Y0064590D01*
X0103148Y0063791D02*
X0099205Y0063791D01*
X0099205Y0062993D02*
X0103281Y0062993D01*
X0103413Y0062194D02*
X0099205Y0062194D01*
X0099205Y0061396D02*
X0102881Y0061396D01*
X0102600Y0060597D02*
X0099205Y0060597D01*
X0099205Y0059799D02*
X0102600Y0059799D01*
X0102883Y0059000D02*
X0099205Y0059000D01*
X0099205Y0058202D02*
X0102835Y0058202D01*
X0102800Y0057403D02*
X0099205Y0057403D01*
X0099033Y0056605D02*
X0102998Y0056605D01*
X0102978Y0055806D02*
X0098235Y0055806D01*
X0097436Y0055008D02*
X0102900Y0055008D01*
X0103055Y0054209D02*
X0096638Y0054209D01*
X0094973Y0058202D02*
X0088730Y0058202D01*
X0089529Y0059000D02*
X0095205Y0059000D01*
X0081025Y0055806D02*
X0076404Y0055806D01*
X0074527Y0055008D02*
X0080484Y0055008D01*
X0080300Y0054209D02*
X0074472Y0054209D01*
X0074472Y0053411D02*
X0080300Y0053411D01*
X0080300Y0052612D02*
X0074472Y0052612D01*
X0074283Y0051814D02*
X0080300Y0051814D01*
X0074500Y0058295D02*
X0071445Y0054240D01*
X0071100Y0054240D01*
X0076975Y0060597D02*
X0079774Y0060597D01*
X0078976Y0061396D02*
X0076975Y0061396D01*
X0076975Y0062194D02*
X0078177Y0062194D01*
X0077379Y0062993D02*
X0076962Y0062993D01*
X0076580Y0063791D02*
X0076524Y0063791D01*
X0074627Y0063791D02*
X0074372Y0063791D01*
X0074372Y0062993D02*
X0074627Y0062993D01*
X0074627Y0062194D02*
X0074372Y0062194D01*
X0072476Y0063791D02*
X0069693Y0063791D01*
X0084400Y0076000D02*
X0088300Y0076000D01*
X0062803Y0045426D02*
X0061254Y0045426D01*
X0060455Y0044627D02*
X0062803Y0044627D01*
X0060825Y0036642D02*
X0060575Y0036642D01*
X0060575Y0035843D02*
X0060825Y0035843D01*
X0060825Y0035045D02*
X0060575Y0035045D01*
X0060575Y0034246D02*
X0060825Y0034246D01*
X0060825Y0033448D02*
X0060575Y0033448D01*
X0060575Y0032649D02*
X0060825Y0032649D01*
X0058520Y0036642D02*
X0058171Y0036642D01*
X0053229Y0036642D02*
X0053171Y0036642D01*
X0048229Y0036642D02*
X0048171Y0036642D01*
X0045700Y0031900D02*
X0045305Y0031505D01*
X0040700Y0031505D01*
X0038250Y0033448D02*
X0035321Y0033448D01*
X0040700Y0028095D02*
X0039302Y0026698D01*
X0047200Y0023005D02*
X0049505Y0023005D01*
X0055700Y0029200D01*
X0055700Y0031900D01*
X0055700Y0029200D02*
X0059205Y0025695D01*
X0059205Y0025100D01*
X0055795Y0025100D02*
X0052395Y0021700D01*
X0052395Y0019788D01*
X0052598Y0019584D01*
X0035495Y0017400D02*
X0035495Y0014400D01*
X0035495Y0013205D01*
X0043452Y0046224D02*
X0043563Y0046224D01*
X0041788Y0050217D02*
X0040975Y0050217D01*
X0038627Y0051814D02*
X0038372Y0051814D01*
X0038372Y0052612D02*
X0038627Y0052612D01*
X0038627Y0053411D02*
X0038372Y0053411D01*
X0049571Y0070461D02*
X0049714Y0070605D01*
X0049571Y0073020D02*
X0049571Y0073021D01*
X0045609Y0075769D02*
X0041156Y0075769D01*
X0014883Y0078165D02*
X0012762Y0078165D01*
X0013247Y0078963D02*
X0013911Y0078963D01*
D21*
X0016400Y0081000D03*
X0027100Y0082700D03*
X0038700Y0073700D03*
X0039200Y0065600D03*
X0046500Y0064600D03*
X0050700Y0060900D03*
X0035300Y0054400D03*
X0024200Y0059000D03*
X0023200Y0053300D03*
X0017800Y0044500D03*
X0009400Y0055900D03*
X0037500Y0036900D03*
X0040400Y0041300D03*
X0058500Y0038000D03*
X0068700Y0037300D03*
X0067900Y0042800D03*
X0079400Y0044500D03*
X0082300Y0047600D03*
X0093200Y0051200D03*
X0100500Y0064400D03*
X0094300Y0066600D03*
X0076900Y0078700D03*
X0068800Y0061300D03*
X0070700Y0028900D03*
X0071800Y0014300D03*
X0044800Y0014100D03*
D22*
X0035495Y0014400D02*
X0035495Y0015005D01*
X0083700Y0055395D02*
X0084205Y0055900D01*
X0054200Y0076205D02*
X0053975Y0075980D01*
X0050695Y0057300D02*
X0050800Y0056595D01*
M02*
